{"glyphs":{"0":{"ha":861,"x_min":0,"x_max":0,"o":"m 431 1064 b 28 524 204 1064 28 843 b 431 -17 28 204 204 -17 b 833 524 657 -17 833 204 b 431 1064 833 843 657 1064 z m 283 524 b 431 819 283 690 342 819 b 578 524 519 819 578 690 b 431 228 578 357 519 228 b 283 524 342 228 283 357 z "},"1":{"ha":861,"x_min":0,"x_max":0,"o":"m 663 1047 l 215 1047 l 67 825 l 390 825 l 390 0 l 663 0 z "},"2":{"ha":861,"x_min":0,"x_max":0,"o":"m 311 688 b 424 806 315 750 351 806 b 521 699 485 806 521 761 b 406 482 521 633 472 568 l 25 0 l 824 0 l 824 224 l 508 224 l 607 349 b 801 718 699 465 801 588 b 421 1064 801 926 657 1064 b 18 688 188 1064 39 897 z "},"3":{"ha":861,"x_min":0,"x_max":0,"o":"m 438 442 b 572 329 513 442 572 404 b 438 204 572 256 514 204 b 292 354 349 204 293 269 l 26 354 b 439 -17 32 133 194 -17 b 829 315 674 -17 829 129 b 694 549 829 422 775 500 b 793 750 742 586 793 658 b 449 1064 793 938 661 1064 b 71 719 229 1064 86 910 l 326 719 b 440 832 332 785 372 832 b 540 736 503 832 540 790 b 436 638 540 669 489 638 l 365 638 l 365 442 z "},"4":{"ha":861,"x_min":0,"x_max":0,"o":"m 735 0 l 735 233 l 847 233 l 847 450 l 735 450 l 735 1047 l 439 1047 l 14 442 l 14 233 l 475 233 l 475 0 z m 272 450 l 475 740 l 475 450 z "},"5":{"ha":861,"x_min":0,"x_max":0,"o":"m 339 222 b 90 354 238 222 142 288 l 33 101 b 361 -17 90 40 207 -17 b 782 381 600 -17 782 164 b 432 726 782 565 657 726 l 403 726 l 424 824 l 747 824 l 747 1047 l 238 1047 l 121 482 b 314 526 190 514 257 526 b 521 374 439 526 521 463 b 339 222 521 268 422 222 z "},"6":{"ha":861,"x_min":0,"x_max":0,"o":"m 835 379 b 500 750 835 579 697 732 l 731 1047 l 426 1047 l 172 714 b 26 378 67 575 26 488 b 431 -17 26 154 203 -17 b 835 379 663 -17 835 154 z m 432 536 b 589 378 519 536 589 465 b 432 219 589 292 519 219 b 275 378 343 219 275 292 b 432 536 275 465 343 536 z "},"7":{"ha":861,"x_min":0,"x_max":0,"o":"m 861 1047 l 28 1047 l 28 824 l 460 824 l 60 0 l 354 0 z "},"8":{"ha":861,"x_min":0,"x_max":0,"o":"m 431 1064 b 86 764 249 1064 86 944 b 196 544 86 665 138 589 b 32 301 132 514 32 431 b 431 -17 32 111 210 -17 b 829 301 651 -17 829 111 b 665 544 829 431 729 514 b 775 764 724 589 775 665 b 431 1064 775 944 613 1064 z m 431 660 b 326 761 371 660 326 700 b 431 864 326 822 371 864 b 535 761 490 864 535 822 b 431 660 535 700 490 660 z m 431 199 b 301 319 357 199 301 249 b 431 439 301 390 357 439 b 560 319 504 439 560 390 b 431 199 560 249 504 199 z "},"9":{"ha":861,"x_min":0,"x_max":0,"o":"m 26 668 b 361 297 26 468 164 315 l 131 0 l 435 0 l 689 333 b 835 669 794 472 835 560 b 431 1064 835 893 658 1064 b 26 668 199 1064 26 893 z m 429 511 b 272 669 342 511 272 582 b 429 828 272 756 342 828 b 586 669 518 828 586 756 b 429 511 586 582 518 511 z "}," ":{"ha":861,"x_min":0,"x_max":0,"o":""}," ":{"ha":0,"x_min":0,"x_max":0,"o":""}," ":{"ha":861,"x_min":0,"x_max":0,"o":""},"A":{"ha":861,"x_min":0,"x_max":0,"o":"m 611 0 l 861 0 l 431 1090 l 0 0 l 260 0 l 303 118 l 569 118 z m 438 488 l 506 296 l 368 296 z "},"B":{"ha":861,"x_min":0,"x_max":0,"o":"m 651 554 b 775 764 714 590 775 660 b 406 1047 775 936 650 1047 l 56 1047 l 56 0 l 458 0 b 838 306 700 0 838 122 b 651 554 838 422 760 518 z m 321 824 l 390 824 b 511 724 465 824 511 788 b 390 624 511 660 465 624 l 321 624 z m 321 426 l 439 426 b 561 325 517 426 561 382 b 439 224 561 268 517 224 l 321 224 z "},"C":{"ha":861,"x_min":0,"x_max":0,"o":"m 304 524 b 575 804 304 685 419 804 b 799 704 672 804 753 761 l 799 1014 b 565 1064 729 1047 647 1064 b 33 524 271 1064 33 821 b 565 -17 33 226 271 -17 b 799 33 647 -17 729 0 l 799 343 b 575 243 753 286 672 243 b 304 524 419 243 304 363 z "},"D":{"ha":861,"x_min":0,"x_max":0,"o":"m 56 0 l 354 0 b 832 524 646 0 832 225 b 354 1047 832 822 646 1047 l 56 1047 z m 572 524 b 344 224 572 363 490 224 l 328 224 l 328 824 l 347 824 b 572 524 490 824 572 685 z "},"E":{"ha":861,"x_min":0,"x_max":0,"o":"m 93 0 l 775 0 l 775 224 l 360 224 l 360 424 l 761 424 l 761 647 l 360 647 l 360 824 l 775 824 l 775 1047 l 93 1047 z "},"F":{"ha":861,"x_min":0,"x_max":0,"o":"m 99 0 l 365 0 l 365 411 l 754 411 l 754 635 l 365 635 l 365 824 l 768 824 l 768 1047 l 99 1047 z "},"G":{"ha":861,"x_min":0,"x_max":0,"o":"m 836 582 l 446 582 l 446 358 l 583 358 b 453 228 561 272 517 228 b 290 524 356 228 290 363 b 451 808 290 686 358 808 b 572 646 514 808 557 747 l 799 781 b 443 1064 742 963 603 1064 b 28 524 213 1064 28 822 b 443 -17 28 226 213 -17 b 836 582 667 -17 863 193 z "},"H":{"ha":861,"x_min":0,"x_max":0,"o":"m 532 0 l 804 0 l 804 1047 l 532 1047 l 532 647 l 328 647 l 328 1047 l 56 1047 l 56 0 l 328 0 l 328 424 l 532 424 z "},"I":{"ha":861,"x_min":0,"x_max":0,"o":"m 42 224 l 42 0 l 819 0 l 819 224 l 567 224 l 567 824 l 819 824 l 819 1047 l 42 1047 l 42 824 l 294 824 l 294 224 z "},"J":{"ha":861,"x_min":0,"x_max":0,"o":"m 301 393 l 24 393 b 426 -17 24 147 182 -17 b 824 374 650 -17 824 128 l 824 1047 l 551 1047 l 551 393 b 426 228 551 279 503 228 b 301 393 350 228 301 279 z "},"K":{"ha":861,"x_min":0,"x_max":0,"o":"m 329 1047 l 56 1047 l 56 0 l 329 0 l 329 322 l 376 388 l 560 0 l 860 0 l 561 642 l 858 1047 l 551 1047 l 329 707 z "},"L":{"ha":861,"x_min":0,"x_max":0,"o":"m 96 0 l 804 0 l 804 224 l 368 224 l 368 1047 l 96 1047 z "},"M":{"ha":861,"x_min":0,"x_max":0,"o":"m 428 -31 l 540 388 l 611 0 l 861 0 l 628 1090 l 431 569 l 233 1090 l 0 0 l 246 0 l 317 388 z "},"N":{"ha":861,"x_min":0,"x_max":0,"o":"m 56 1090 l 56 0 l 306 0 l 306 483 l 806 -43 l 806 1047 l 556 1047 l 556 563 z "},"O":{"ha":861,"x_min":0,"x_max":0,"o":"m 29 524 b 431 -17 29 226 194 -17 b 831 524 667 -17 831 226 b 431 1064 831 822 667 1064 b 29 524 194 1064 29 822 z m 581 524 b 431 236 581 347 515 236 b 279 524 344 236 279 347 b 431 811 279 703 344 811 b 581 524 515 811 581 703 z "},"P":{"ha":861,"x_min":0,"x_max":0,"o":"m 333 357 l 407 357 b 828 701 657 357 828 488 b 407 1047 828 917 657 1047 l 61 1047 l 61 0 l 333 0 z m 333 826 l 406 826 b 550 701 496 826 550 778 b 406 578 550 626 496 578 l 333 578 z "},"Q":{"ha":861,"x_min":0,"x_max":0,"o":"m 29 524 b 431 -17 29 226 194 -17 b 603 36 493 -17 551 3 l 625 0 l 886 0 l 758 215 b 831 524 804 303 831 410 b 431 1065 831 822 667 1065 b 29 524 194 1065 29 822 z m 586 524 b 585 489 586 511 586 500 l 335 489 l 485 235 b 431 218 468 224 450 218 b 279 524 344 218 279 343 b 431 813 279 703 344 813 b 586 524 515 813 586 703 z "},"R":{"ha":861,"x_min":0,"x_max":0,"o":"m 546 0 l 860 0 l 600 401 b 807 703 728 453 807 557 b 388 1047 807 917 636 1047 l 56 1047 l 56 0 l 325 0 l 325 363 z m 325 826 l 386 826 b 531 703 476 826 531 778 b 386 578 531 626 476 578 l 325 578 z "},"S":{"ha":861,"x_min":0,"x_max":0,"o":"m 838 325 b 340 749 838 708 340 590 b 456 842 340 813 396 842 b 656 724 533 842 596 799 l 811 914 b 460 1065 718 1013 603 1065 b 78 722 236 1065 78 915 b 571 306 78 347 571 479 b 436 211 571 246 507 211 b 171 369 329 211 253 276 l -3 178 b 431 -17 99 61 261 -17 b 838 325 656 -17 838 119 z "},"T":{"ha":861,"x_min":0,"x_max":0,"o":"m 847 824 l 847 1047 l 14 1047 l 14 824 l 294 824 l 294 0 l 567 0 l 567 824 z "},"U":{"ha":861,"x_min":0,"x_max":0,"o":"m 431 222 b 307 372 356 222 307 274 l 307 1047 l 35 1047 l 35 379 b 431 -17 35 128 206 -17 b 826 379 656 -17 826 128 l 826 1047 l 554 1047 l 554 372 b 431 222 554 274 506 222 z "},"V":{"ha":861,"x_min":0,"x_max":0,"o":"m 438 629 l 288 1047 l 0 1047 l 431 -43 l 861 1047 l 583 1047 z "},"W":{"ha":861,"x_min":0,"x_max":0,"o":"m 433 1078 l 321 660 l 250 1047 l 0 1047 l 247 -43 l 431 478 l 614 -43 l 861 1047 l 615 1047 l 544 660 z "},"X":{"ha":861,"x_min":0,"x_max":0,"o":"m 286 0 l 428 275 l 560 0 l 857 0 l 582 544 l 856 1047 l 572 1047 l 446 801 l 329 1047 l 32 1047 l 292 532 l 3 0 z "},"Y":{"ha":861,"x_min":0,"x_max":0,"o":"m 567 0 l 567 432 l 860 1047 l 564 1047 l 429 749 l 296 1047 l 0 1047 l 293 432 l 293 0 z "},"Z":{"ha":861,"x_min":0,"x_max":0,"o":"m 435 824 l 1 0 l 839 0 l 839 224 l 425 224 l 858 1047 l 29 1047 l 29 824 z "},"Á":{"ha":861,"x_min":0,"x_max":0,"o":"m 290 1103 l 558 1103 l 782 1368 l 514 1368 z m 611 0 l 861 0 l 431 1090 l 0 0 l 260 0 l 303 118 l 569 118 z m 438 488 l 506 296 l 368 296 z "},"Ă":{"ha":861,"x_min":0,"x_max":0,"o":"m 431 1094 b 714 1369 582 1094 711 1201 l 508 1369 b 431 1281 507 1317 482 1281 b 351 1369 378 1281 353 1317 l 147 1369 b 431 1094 150 1201 279 1094 z m 611 0 l 861 0 l 431 1090 l 0 0 l 260 0 l 303 118 l 569 118 z m 438 488 l 506 296 l 368 296 z "},"Â":{"ha":861,"x_min":0,"x_max":0,"o":"m 431 1406 l 103 1094 l 342 1094 l 431 1179 l 519 1094 l 758 1094 z m 611 0 l 861 0 l 431 1090 l 0 0 l 260 0 l 303 118 l 569 118 z m 438 488 l 506 296 l 368 296 z "},"Ä":{"ha":861,"x_min":0,"x_max":0,"o":"m 240 1118 b 396 1269 325 1118 396 1185 b 240 1424 396 1356 325 1424 b 86 1269 157 1424 86 1356 b 240 1118 86 1185 157 1118 z m 621 1118 b 775 1269 704 1118 775 1185 b 621 1424 775 1356 704 1424 b 465 1269 536 1424 465 1356 b 621 1118 465 1185 536 1118 z m 611 0 l 861 0 l 431 1090 l 0 0 l 260 0 l 303 118 l 569 118 z m 438 488 l 506 296 l 368 296 z "},"À":{"ha":861,"x_min":0,"x_max":0,"o":"m 569 1103 l 346 1368 l 78 1368 l 301 1103 z m 611 0 l 861 0 l 431 1090 l 0 0 l 260 0 l 303 118 l 569 118 z m 438 488 l 506 296 l 368 296 z "},"Ā":{"ha":861,"x_min":0,"x_max":0,"o":"m 181 1138 l 681 1138 l 681 1342 l 181 1342 z m 611 0 l 861 0 l 431 1090 l 0 0 l 260 0 l 303 118 l 569 118 z m 438 488 l 506 296 l 368 296 z "},"Ą":{"ha":861,"x_min":0,"x_max":0,"o":"m 894 -147 l 729 -147 b 700 -185 729 -169 718 -185 b 672 -156 685 -185 672 -174 b 696 -111 672 -140 681 -126 l 804 0 l 861 0 l 431 1090 l 0 0 l 260 0 l 303 118 l 569 118 l 610 3 l 575 -31 b 494 -196 521 -82 494 -137 b 681 -364 494 -296 569 -364 b 894 -147 815 -364 890 -271 z m 438 488 l 506 296 l 368 296 z "},"Å":{"ha":861,"x_min":0,"x_max":0,"o":"m 260 0 l 303 118 l 569 118 l 611 0 l 861 0 l 483 954 b 675 1192 593 979 675 1075 b 429 1435 675 1328 565 1435 b 183 1192 293 1435 183 1328 b 378 954 183 1074 267 978 l 0 0 z m 429 1129 b 367 1192 394 1129 367 1157 b 429 1254 367 1226 394 1254 b 492 1192 464 1254 492 1226 b 429 1129 492 1157 464 1129 z m 438 488 l 506 296 l 368 296 z "},"Ã":{"ha":861,"x_min":0,"x_max":0,"o":"m 564 1369 b 518 1304 564 1326 546 1304 b 299 1382 464 1304 410 1382 b 110 1117 175 1382 110 1254 l 297 1117 b 343 1183 297 1160 317 1183 b 563 1106 399 1183 453 1106 b 751 1369 686 1106 751 1233 z m 611 0 l 861 0 l 431 1090 l 0 0 l 260 0 l 303 118 l 569 118 z m 438 488 l 506 296 l 368 296 z "},"Æ":{"ha":861,"x_min":0,"x_max":0,"o":"m 456 0 l 851 0 l 851 224 l 667 224 l 667 424 l 843 424 l 843 647 l 667 647 l 667 824 l 851 824 l 851 1047 l 286 1047 l 4 0 l 250 0 l 307 226 l 456 226 z m 360 432 l 456 811 l 456 432 z "},"Ǽ":{"ha":861,"x_min":0,"x_max":0,"o":"m 400 1103 l 668 1103 l 892 1368 l 624 1368 z m 456 0 l 851 0 l 851 224 l 667 224 l 667 424 l 843 424 l 843 647 l 667 647 l 667 824 l 851 824 l 851 1047 l 286 1047 l 4 0 l 250 0 l 307 226 l 456 226 z m 360 432 l 456 811 l 456 432 z "},"Ć":{"ha":861,"x_min":0,"x_max":0,"o":"m 388 1103 l 656 1103 l 879 1368 l 611 1368 z m 304 524 b 575 804 304 685 419 804 b 799 704 672 804 753 761 l 799 1014 b 565 1064 729 1047 647 1064 b 33 524 271 1064 33 821 b 565 -17 33 226 271 -17 b 799 33 647 -17 729 0 l 799 343 b 575 243 753 286 672 243 b 304 524 419 243 304 363 z "},"Č":{"ha":861,"x_min":0,"x_max":0,"o":"m 528 1093 l 856 1404 l 617 1404 l 528 1319 l 439 1404 l 200 1404 z m 304 524 b 575 804 304 685 419 804 b 799 704 672 804 753 761 l 799 1014 b 565 1064 729 1047 647 1064 b 33 524 271 1064 33 821 b 565 -17 33 226 271 -17 b 799 33 647 -17 729 0 l 799 343 b 575 243 753 286 672 243 b 304 524 419 243 304 363 z "},"Ç":{"ha":861,"x_min":0,"x_max":0,"o":"m 304 524 b 575 804 304 685 419 804 b 799 704 672 804 753 761 l 799 1014 b 565 1064 729 1047 647 1064 b 33 524 271 1064 33 821 b 565 -17 33 226 271 -17 b 799 33 647 -17 729 0 l 799 343 b 575 243 753 286 672 243 b 304 524 419 243 304 363 z m 226 -347 l 489 -347 l 663 -100 l 400 -100 z "},"Ĉ":{"ha":861,"x_min":0,"x_max":0,"o":"m 528 1406 l 200 1094 l 439 1094 l 528 1179 l 617 1094 l 856 1094 z m 304 524 b 575 804 304 685 419 804 b 799 704 672 804 753 761 l 799 1014 b 565 1064 729 1047 647 1064 b 33 524 271 1064 33 821 b 565 -17 33 226 271 -17 b 799 33 647 -17 729 0 l 799 343 b 575 243 753 286 672 243 b 304 524 419 243 304 363 z "},"Ċ":{"ha":861,"x_min":0,"x_max":0,"o":"m 528 1117 b 690 1276 617 1117 690 1186 b 528 1438 690 1367 617 1438 b 365 1276 439 1438 365 1367 b 528 1117 365 1186 439 1117 z m 304 524 b 575 804 304 685 419 804 b 799 704 672 804 753 761 l 799 1014 b 565 1064 729 1047 647 1064 b 33 524 271 1064 33 821 b 565 -17 33 226 271 -17 b 799 33 647 -17 729 0 l 799 343 b 575 243 753 286 672 243 b 304 524 419 243 304 363 z "},"Ď":{"ha":861,"x_min":0,"x_max":0,"o":"m 431 1093 l 758 1404 l 519 1404 l 431 1319 l 342 1404 l 103 1404 z m 56 0 l 354 0 b 832 524 646 0 832 225 b 354 1047 832 822 646 1047 l 56 1047 z m 572 524 b 344 224 572 363 490 224 l 328 224 l 328 824 l 347 824 b 572 524 490 824 572 685 z "},"Đ":{"ha":861,"x_min":0,"x_max":0,"o":"m 56 0 l 354 0 b 832 524 646 0 832 225 b 354 1047 832 822 646 1047 l 56 1047 l 56 647 l 0 647 l 0 424 l 56 424 z m 572 524 b 344 224 572 363 490 224 l 328 224 l 328 424 l 458 424 l 458 647 l 328 647 l 328 824 l 347 824 b 572 524 490 824 572 685 z "},"É":{"ha":861,"x_min":0,"x_max":0,"o":"m 300 1103 l 568 1103 l 792 1368 l 524 1368 z m 93 0 l 775 0 l 775 224 l 360 224 l 360 424 l 761 424 l 761 647 l 360 647 l 360 824 l 775 824 l 775 1047 l 93 1047 z "},"Ĕ":{"ha":861,"x_min":0,"x_max":0,"o":"m 440 1094 b 724 1369 592 1094 721 1201 l 518 1369 b 440 1281 517 1317 492 1281 b 361 1369 388 1281 363 1317 l 157 1369 b 440 1094 160 1201 289 1094 z m 93 0 l 775 0 l 775 224 l 360 224 l 360 424 l 761 424 l 761 647 l 360 647 l 360 824 l 775 824 l 775 1047 l 93 1047 z "},"Ě":{"ha":861,"x_min":0,"x_max":0,"o":"m 440 1093 l 768 1404 l 529 1404 l 440 1319 l 351 1404 l 113 1404 z m 93 0 l 775 0 l 775 224 l 360 224 l 360 424 l 761 424 l 761 647 l 360 647 l 360 824 l 775 824 l 775 1047 l 93 1047 z "},"Ê":{"ha":861,"x_min":0,"x_max":0,"o":"m 440 1406 l 113 1094 l 351 1094 l 440 1179 l 529 1094 l 768 1094 z m 93 0 l 775 0 l 775 224 l 360 224 l 360 424 l 761 424 l 761 647 l 360 647 l 360 824 l 775 824 l 775 1047 l 93 1047 z "},"Ë":{"ha":861,"x_min":0,"x_max":0,"o":"m 250 1118 b 406 1269 335 1118 406 1185 b 250 1424 406 1356 335 1424 b 96 1269 167 1424 96 1356 b 250 1118 96 1185 167 1118 z m 631 1118 b 785 1269 714 1118 785 1185 b 631 1424 785 1356 714 1424 b 475 1269 546 1424 475 1356 b 631 1118 475 1185 546 1118 z m 93 0 l 775 0 l 775 224 l 360 224 l 360 424 l 761 424 l 761 647 l 360 647 l 360 824 l 775 824 l 775 1047 l 93 1047 z "},"Ė":{"ha":861,"x_min":0,"x_max":0,"o":"m 440 1117 b 603 1276 529 1117 603 1186 b 440 1438 603 1367 529 1438 b 278 1276 351 1438 278 1367 b 440 1117 278 1186 351 1117 z m 93 0 l 775 0 l 775 224 l 360 224 l 360 424 l 761 424 l 761 647 l 360 647 l 360 824 l 775 824 l 775 1047 l 93 1047 z "},"È":{"ha":861,"x_min":0,"x_max":0,"o":"m 579 1103 l 356 1368 l 88 1368 l 311 1103 z m 93 0 l 775 0 l 775 224 l 360 224 l 360 424 l 761 424 l 761 647 l 360 647 l 360 824 l 775 824 l 775 1047 l 93 1047 z "},"Ē":{"ha":861,"x_min":0,"x_max":0,"o":"m 190 1138 l 690 1138 l 690 1342 l 190 1342 z m 93 0 l 775 0 l 775 224 l 360 224 l 360 424 l 761 424 l 761 647 l 360 647 l 360 824 l 775 824 l 775 1047 l 93 1047 z "},"Ę":{"ha":861,"x_min":0,"x_max":0,"o":"m 93 0 l 440 0 l 408 -31 b 328 -196 354 -82 328 -137 b 514 -364 328 -296 403 -364 b 728 -147 649 -364 724 -271 l 563 -147 b 533 -185 563 -169 551 -185 b 506 -156 518 -185 506 -174 b 529 -111 506 -140 514 -126 l 638 0 l 775 0 l 775 224 l 360 224 l 360 424 l 761 424 l 761 647 l 360 647 l 360 824 l 775 824 l 775 1047 l 93 1047 z "},"Ð":{"ha":861,"x_min":0,"x_max":0,"o":"m 56 0 l 354 0 b 832 524 646 0 832 225 b 354 1047 832 822 646 1047 l 56 1047 l 56 647 l 0 647 l 0 424 l 56 424 z m 572 524 b 344 224 572 363 490 224 l 328 224 l 328 424 l 458 424 l 458 647 l 328 647 l 328 824 l 347 824 b 572 524 490 824 572 685 z "},"Ğ":{"ha":861,"x_min":0,"x_max":0,"o":"m 443 1094 b 726 1369 594 1094 724 1201 l 521 1369 b 443 1281 519 1317 494 1281 b 364 1369 390 1281 365 1317 l 160 1369 b 443 1094 163 1201 292 1094 z m 836 582 l 446 582 l 446 358 l 583 358 b 453 228 561 272 517 228 b 290 524 356 228 290 363 b 451 808 290 686 358 808 b 572 646 514 808 557 747 l 799 781 b 443 1064 742 963 603 1064 b 28 524 213 1064 28 822 b 443 -17 28 226 213 -17 b 836 582 667 -17 863 193 z "},"Ĝ":{"ha":861,"x_min":0,"x_max":0,"o":"m 443 1406 l 115 1094 l 354 1094 l 443 1179 l 532 1094 l 771 1094 z m 836 582 l 446 582 l 446 358 l 583 358 b 453 228 561 272 517 228 b 290 524 356 228 290 363 b 451 808 290 686 358 808 b 572 646 514 808 557 747 l 799 781 b 443 1064 742 963 603 1064 b 28 524 213 1064 28 822 b 443 -17 28 226 213 -17 b 836 582 667 -17 863 193 z "},"Ģ":{"ha":861,"x_min":0,"x_max":0,"o":"m 836 582 l 446 582 l 446 358 l 583 358 b 453 228 561 272 517 228 b 290 524 356 228 290 363 b 451 808 290 686 358 808 b 572 646 514 808 557 747 l 799 781 b 443 1064 742 963 603 1064 b 28 524 213 1064 28 822 b 443 -17 28 226 213 -17 b 836 582 667 -17 863 193 z m 551 -46 l 338 -46 l 338 -158 l 136 -158 l 136 -347 l 551 -347 z "},"Ġ":{"ha":861,"x_min":0,"x_max":0,"o":"m 443 1117 b 606 1276 532 1117 606 1186 b 443 1438 606 1367 532 1438 b 281 1276 354 1438 281 1367 b 443 1117 281 1186 354 1117 z m 836 582 l 446 582 l 446 358 l 583 358 b 453 228 561 272 517 228 b 290 524 356 228 290 363 b 451 808 290 686 358 808 b 572 646 514 808 557 747 l 799 781 b 443 1064 742 963 603 1064 b 28 524 213 1064 28 822 b 443 -17 28 226 213 -17 b 836 582 667 -17 863 193 z "},"Ħ":{"ha":861,"x_min":0,"x_max":0,"o":"m 532 0 l 804 0 l 804 642 l 861 642 l 861 865 l 804 865 l 804 1047 l 532 1047 l 532 865 l 328 865 l 328 1047 l 56 1047 l 56 865 l 0 865 l 0 642 l 56 642 l 56 0 l 328 0 l 328 285 l 532 285 z m 328 508 l 328 642 l 532 642 l 532 508 z "},"Ĥ":{"ha":861,"x_min":0,"x_max":0,"o":"m 431 1406 l 103 1094 l 342 1094 l 431 1179 l 519 1094 l 758 1094 z m 532 0 l 804 0 l 804 1047 l 532 1047 l 532 647 l 328 647 l 328 1047 l 56 1047 l 56 0 l 328 0 l 328 424 l 532 424 z "},"Í":{"ha":861,"x_min":0,"x_max":0,"o":"m 290 1103 l 558 1103 l 782 1368 l 514 1368 z m 42 224 l 42 0 l 819 0 l 819 224 l 567 224 l 567 824 l 819 824 l 819 1047 l 42 1047 l 42 824 l 294 824 l 294 224 z "},"Ĭ":{"ha":861,"x_min":0,"x_max":0,"o":"m 431 1094 b 714 1369 582 1094 711 1201 l 508 1369 b 431 1281 507 1317 482 1281 b 351 1369 378 1281 353 1317 l 147 1369 b 431 1094 150 1201 279 1094 z m 42 224 l 42 0 l 819 0 l 819 224 l 567 224 l 567 824 l 819 824 l 819 1047 l 42 1047 l 42 824 l 294 824 l 294 224 z "},"Î":{"ha":861,"x_min":0,"x_max":0,"o":"m 431 1406 l 103 1094 l 342 1094 l 431 1179 l 519 1094 l 758 1094 z m 42 224 l 42 0 l 819 0 l 819 224 l 567 224 l 567 824 l 819 824 l 819 1047 l 42 1047 l 42 824 l 294 824 l 294 224 z "},"Ï":{"ha":861,"x_min":0,"x_max":0,"o":"m 240 1118 b 396 1269 325 1118 396 1185 b 240 1424 396 1356 325 1424 b 86 1269 157 1424 86 1356 b 240 1118 86 1185 157 1118 z m 621 1118 b 775 1269 704 1118 775 1185 b 621 1424 775 1356 704 1424 b 465 1269 536 1424 465 1356 b 621 1118 465 1185 536 1118 z m 42 224 l 42 0 l 819 0 l 819 224 l 567 224 l 567 824 l 819 824 l 819 1047 l 42 1047 l 42 824 l 294 824 l 294 224 z "},"İ":{"ha":861,"x_min":0,"x_max":0,"o":"m 431 1117 b 593 1276 519 1117 593 1186 b 431 1438 593 1367 519 1438 b 268 1276 342 1438 268 1367 b 431 1117 268 1186 342 1117 z m 42 224 l 42 0 l 819 0 l 819 224 l 567 224 l 567 824 l 819 824 l 819 1047 l 42 1047 l 42 824 l 294 824 l 294 224 z "},"Ì":{"ha":861,"x_min":0,"x_max":0,"o":"m 569 1103 l 346 1368 l 78 1368 l 301 1103 z m 42 224 l 42 0 l 819 0 l 819 224 l 567 224 l 567 824 l 819 824 l 819 1047 l 42 1047 l 42 824 l 294 824 l 294 224 z "},"Ī":{"ha":861,"x_min":0,"x_max":0,"o":"m 181 1138 l 681 1138 l 681 1342 l 181 1342 z m 42 224 l 42 0 l 819 0 l 819 224 l 567 224 l 567 824 l 819 824 l 819 1047 l 42 1047 l 42 824 l 294 824 l 294 224 z "},"Į":{"ha":861,"x_min":0,"x_max":0,"o":"m 42 224 l 42 0 l 368 0 l 336 -31 b 256 -196 282 -82 256 -137 b 442 -364 256 -296 331 -364 b 656 -147 576 -364 651 -271 l 490 -147 b 461 -185 490 -169 479 -185 b 433 -156 446 -185 433 -174 b 457 -111 433 -140 442 -126 l 565 0 l 819 0 l 819 224 l 567 224 l 567 824 l 819 824 l 819 1047 l 42 1047 l 42 824 l 294 824 l 294 224 z "},"Ĩ":{"ha":861,"x_min":0,"x_max":0,"o":"m 564 1369 b 518 1304 564 1326 546 1304 b 299 1382 464 1304 410 1382 b 110 1117 175 1382 110 1254 l 297 1117 b 343 1183 297 1160 317 1183 b 563 1106 399 1183 453 1106 b 751 1369 686 1106 751 1233 z m 42 224 l 42 0 l 819 0 l 819 224 l 567 224 l 567 824 l 819 824 l 819 1047 l 42 1047 l 42 824 l 294 824 l 294 224 z "},"Ĳ":{"ha":1722,"x_min":0,"x_max":0,"o":"m 42 224 l 42 0 l 819 0 l 819 224 l 567 224 l 567 824 l 819 824 l 819 1047 l 42 1047 l 42 824 l 294 824 l 294 224 z m 1163 393 l 885 393 b 1288 -17 885 147 1043 -17 b 1685 374 1511 -17 1685 128 l 1685 1047 l 1413 1047 l 1413 393 b 1288 228 1413 279 1364 228 b 1163 393 1211 228 1163 279 z "},"Ĵ":{"ha":861,"x_min":0,"x_max":0,"o":"m 688 1406 l 360 1094 l 599 1094 l 688 1179 l 776 1094 l 1015 1094 z m 301 393 l 24 393 b 426 -17 24 147 182 -17 b 824 374 650 -17 824 128 l 824 1047 l 551 1047 l 551 393 b 426 228 551 279 503 228 b 301 393 350 228 301 279 z "},"Ķ":{"ha":861,"x_min":0,"x_max":0,"o":"m 329 1047 l 56 1047 l 56 0 l 329 0 l 329 322 l 376 388 l 560 0 l 860 0 l 561 642 l 858 1047 l 551 1047 l 329 707 z m 553 -46 l 339 -46 l 339 -158 l 138 -158 l 138 -347 l 553 -347 z "},"Ĺ":{"ha":861,"x_min":0,"x_max":0,"o":"m 94 1103 l 363 1103 l 586 1368 l 318 1368 z m 96 0 l 804 0 l 804 224 l 368 224 l 368 1047 l 96 1047 z "},"Ľ":{"ha":861,"x_min":0,"x_max":0,"o":"m 96 0 l 804 0 l 804 224 l 368 224 l 368 1047 l 96 1047 z m 464 683 l 685 683 l 763 1047 l 542 1047 z "},"Ļ":{"ha":861,"x_min":0,"x_max":0,"o":"m 96 0 l 804 0 l 804 224 l 368 224 l 368 1047 l 96 1047 z m 558 -46 l 344 -46 l 344 -158 l 143 -158 l 143 -347 l 558 -347 z "},"Ŀ":{"ha":861,"x_min":0,"x_max":0,"o":"m 96 0 l 804 0 l 804 224 l 368 224 l 368 1047 l 96 1047 z m 663 435 b 825 594 751 435 825 504 b 663 756 825 685 751 756 b 500 594 574 756 500 685 b 663 435 500 504 574 435 z "},"Ł":{"ha":861,"x_min":0,"x_max":0,"o":"m 96 0 l 804 0 l 804 224 l 368 224 l 368 494 l 583 583 l 583 801 l 368 713 l 368 1047 l 96 1047 l 96 614 l 14 579 l 14 361 l 96 396 z "},"Ń":{"ha":861,"x_min":0,"x_max":0,"o":"m 263 1103 l 531 1103 l 754 1368 l 486 1368 z m 56 1090 l 56 0 l 306 0 l 306 483 l 806 -43 l 806 1047 l 556 1047 l 556 563 z "},"Ň":{"ha":861,"x_min":0,"x_max":0,"o":"m 403 1093 l 731 1404 l 492 1404 l 403 1319 l 314 1404 l 75 1404 z m 56 1090 l 56 0 l 306 0 l 306 483 l 806 -43 l 806 1047 l 556 1047 l 556 563 z "},"Ņ":{"ha":861,"x_min":0,"x_max":0,"o":"m 56 1090 l 56 0 l 306 0 l 306 483 l 806 -43 l 806 1047 l 556 1047 l 556 563 z m 594 -46 l 381 -46 l 381 -158 l 179 -158 l 179 -347 l 594 -347 z "},"Ñ":{"ha":861,"x_min":0,"x_max":0,"o":"m 536 1369 b 490 1304 536 1326 518 1304 b 271 1382 436 1304 382 1382 b 82 1117 147 1382 82 1254 l 269 1117 b 315 1183 269 1160 289 1183 b 535 1106 371 1183 425 1106 b 724 1369 658 1106 724 1233 z m 56 1090 l 56 0 l 306 0 l 306 483 l 806 -43 l 806 1047 l 556 1047 l 556 563 z "},"Ŋ":{"ha":861,"x_min":0,"x_max":0,"o":"m 557 -347 l 806 -347 l 806 1047 l 556 1047 l 556 563 l 56 1090 l 56 0 l 306 0 l 306 483 l 557 218 z "},"Ó":{"ha":861,"x_min":0,"x_max":0,"o":"m 290 1103 l 558 1103 l 782 1368 l 514 1368 z m 29 524 b 431 -17 29 226 194 -17 b 831 524 667 -17 831 226 b 431 1064 831 822 667 1064 b 29 524 194 1064 29 822 z m 581 524 b 431 236 581 347 515 236 b 279 524 344 236 279 347 b 431 811 279 703 344 811 b 581 524 515 811 581 703 z "},"Ŏ":{"ha":861,"x_min":0,"x_max":0,"o":"m 431 1094 b 714 1369 582 1094 711 1201 l 508 1369 b 431 1281 507 1317 482 1281 b 351 1369 378 1281 353 1317 l 147 1369 b 431 1094 150 1201 279 1094 z m 29 524 b 431 -17 29 226 194 -17 b 831 524 667 -17 831 226 b 431 1064 831 822 667 1064 b 29 524 194 1064 29 822 z m 581 524 b 431 236 581 347 515 236 b 279 524 344 236 279 347 b 431 811 279 703 344 811 b 581 524 515 811 581 703 z "},"Ô":{"ha":861,"x_min":0,"x_max":0,"o":"m 431 1406 l 103 1094 l 342 1094 l 431 1179 l 519 1094 l 758 1094 z m 29 524 b 431 -17 29 226 194 -17 b 831 524 667 -17 831 226 b 431 1064 831 822 667 1064 b 29 524 194 1064 29 822 z m 581 524 b 431 236 581 347 515 236 b 279 524 344 236 279 347 b 431 811 279 703 344 811 b 581 524 515 811 581 703 z "},"Ö":{"ha":861,"x_min":0,"x_max":0,"o":"m 240 1118 b 396 1269 325 1118 396 1185 b 240 1424 396 1356 325 1424 b 86 1269 157 1424 86 1356 b 240 1118 86 1185 157 1118 z m 621 1118 b 775 1269 704 1118 775 1185 b 621 1424 775 1356 704 1424 b 465 1269 536 1424 465 1356 b 621 1118 465 1185 536 1118 z m 29 524 b 431 -17 29 226 194 -17 b 831 524 667 -17 831 226 b 431 1064 831 822 667 1064 b 29 524 194 1064 29 822 z m 581 524 b 431 236 581 347 515 236 b 279 524 344 236 279 347 b 431 811 279 703 344 811 b 581 524 515 811 581 703 z "},"Ò":{"ha":861,"x_min":0,"x_max":0,"o":"m 569 1103 l 346 1368 l 78 1368 l 301 1103 z m 29 524 b 431 -17 29 226 194 -17 b 831 524 667 -17 831 226 b 431 1064 831 822 667 1064 b 29 524 194 1064 29 822 z m 581 524 b 431 236 581 347 515 236 b 279 524 344 236 279 347 b 431 811 279 703 344 811 b 581 524 515 811 581 703 z "},"Ő":{"ha":861,"x_min":0,"x_max":0,"o":"m 133 1103 l 368 1103 l 597 1368 l 363 1368 z m 456 1103 l 690 1103 l 919 1368 l 685 1368 z m 29 524 b 431 -17 29 226 194 -17 b 831 524 667 -17 831 226 b 431 1064 831 822 667 1064 b 29 524 194 1064 29 822 z m 581 524 b 431 236 581 347 515 236 b 279 524 344 236 279 347 b 431 811 279 703 344 811 b 581 524 515 811 581 703 z "},"Ō":{"ha":861,"x_min":0,"x_max":0,"o":"m 181 1138 l 681 1138 l 681 1342 l 181 1342 z m 29 524 b 431 -17 29 226 194 -17 b 831 524 667 -17 831 226 b 431 1064 831 822 667 1064 b 29 524 194 1064 29 822 z m 581 524 b 431 236 581 347 515 236 b 279 524 344 236 279 347 b 431 811 279 703 344 811 b 581 524 515 811 581 703 z "},"Ø":{"ha":861,"x_min":0,"x_max":0,"o":"m 831 524 b 771 815 831 631 810 732 l 872 971 l 735 1078 l 660 972 b 431 1064 597 1031 519 1064 b 31 524 194 1064 31 821 b 90 233 31 417 51 317 l -12 76 l 125 -31 l 200 76 b 431 -17 264 18 342 -17 b 831 524 667 -17 831 226 z m 275 524 b 431 822 275 707 343 822 b 510 786 460 822 486 810 l 281 436 b 275 524 276 463 275 492 z m 586 524 b 431 225 586 340 518 225 b 351 263 401 225 374 238 l 581 614 b 586 524 583 586 586 556 z "},"Ǿ":{"ha":861,"x_min":0,"x_max":0,"o":"m 290 1103 l 558 1103 l 782 1368 l 514 1368 z m 831 524 b 771 815 831 631 810 732 l 872 971 l 735 1078 l 660 972 b 431 1064 597 1031 519 1064 b 31 524 194 1064 31 821 b 90 233 31 417 51 317 l -12 76 l 125 -31 l 200 76 b 431 -17 264 18 342 -17 b 831 524 667 -17 831 226 z m 275 524 b 431 822 275 707 343 822 b 510 786 460 822 486 810 l 281 436 b 275 524 276 463 275 492 z m 586 524 b 431 225 586 340 518 225 b 351 263 401 225 374 238 l 581 614 b 586 524 583 586 586 556 z "},"Õ":{"ha":861,"x_min":0,"x_max":0,"o":"m 564 1369 b 518 1304 564 1326 546 1304 b 299 1382 464 1304 410 1382 b 110 1117 175 1382 110 1254 l 297 1117 b 343 1183 297 1160 317 1183 b 563 1106 399 1183 453 1106 b 751 1369 686 1106 751 1233 z m 29 524 b 431 -17 29 226 194 -17 b 831 524 667 -17 831 226 b 431 1064 831 822 667 1064 b 29 524 194 1064 29 822 z m 581 524 b 431 236 581 347 515 236 b 279 524 344 236 279 347 b 431 811 279 703 344 811 b 581 524 515 811 581 703 z "},"Œ":{"ha":861,"x_min":0,"x_max":0,"o":"m 850 0 l 850 224 l 665 224 l 665 424 l 842 424 l 842 647 l 665 647 l 665 824 l 850 824 l 850 1047 l 394 1047 b 0 524 154 1047 0 822 b 394 0 0 225 154 0 z m 246 524 b 403 824 246 685 301 810 l 403 224 b 246 524 304 238 246 363 z "},"Ŕ":{"ha":861,"x_min":0,"x_max":0,"o":"m 276 1103 l 544 1103 l 768 1368 l 500 1368 z m 546 0 l 860 0 l 600 401 b 807 703 728 453 807 557 b 388 1047 807 917 636 1047 l 56 1047 l 56 0 l 325 0 l 325 363 z m 325 826 l 386 826 b 531 703 476 826 531 778 b 386 578 531 626 476 578 l 325 578 z "},"Ř":{"ha":861,"x_min":0,"x_max":0,"o":"m 417 1093 l 744 1404 l 506 1404 l 417 1319 l 328 1404 l 89 1404 z m 546 0 l 860 0 l 600 401 b 807 703 728 453 807 557 b 388 1047 807 917 636 1047 l 56 1047 l 56 0 l 325 0 l 325 363 z m 325 826 l 386 826 b 531 703 476 826 531 778 b 386 578 531 626 476 578 l 325 578 z "},"Ŗ":{"ha":861,"x_min":0,"x_max":0,"o":"m 546 0 l 860 0 l 600 401 b 807 703 728 453 807 557 b 388 1047 807 917 636 1047 l 56 1047 l 56 0 l 325 0 l 325 363 z m 325 826 l 386 826 b 531 703 476 826 531 778 b 386 578 531 626 476 578 l 325 578 z m 540 -46 l 326 -46 l 326 -158 l 125 -158 l 125 -347 l 540 -347 z "},"Ś":{"ha":861,"x_min":0,"x_max":0,"o":"m 332 1103 l 600 1103 l 824 1368 l 556 1368 z m 838 325 b 340 749 838 708 340 590 b 456 842 340 813 396 842 b 656 724 533 842 596 799 l 811 914 b 460 1065 718 1013 603 1065 b 78 722 236 1065 78 915 b 571 306 78 347 571 479 b 436 211 571 246 507 211 b 171 369 329 211 253 276 l -3 178 b 431 -17 99 61 261 -17 b 838 325 656 -17 838 119 z "},"Š":{"ha":861,"x_min":0,"x_max":0,"o":"m 472 1093 l 800 1404 l 561 1404 l 472 1319 l 383 1404 l 144 1404 z m 838 325 b 340 749 838 708 340 590 b 456 842 340 813 396 842 b 656 724 533 842 596 799 l 811 914 b 460 1065 718 1013 603 1065 b 78 722 236 1065 78 915 b 571 306 78 347 571 479 b 436 211 571 246 507 211 b 171 369 329 211 253 276 l -3 178 b 431 -17 99 61 261 -17 b 838 325 656 -17 838 119 z "},"Ş":{"ha":861,"x_min":0,"x_max":0,"o":"m 838 325 b 340 749 838 708 340 590 b 456 842 340 813 396 842 b 656 724 533 842 596 799 l 811 914 b 460 1065 718 1013 603 1065 b 78 722 236 1065 78 915 b 571 306 78 347 571 479 b 436 211 571 246 507 211 b 171 369 329 211 253 276 l -3 178 b 431 -17 99 61 261 -17 b 838 325 656 -17 838 119 z m 129 -347 l 392 -347 l 565 -100 l 303 -100 z "},"Ŝ":{"ha":861,"x_min":0,"x_max":0,"o":"m 472 1406 l 144 1094 l 383 1094 l 472 1179 l 561 1094 l 800 1094 z m 838 325 b 340 749 838 708 340 590 b 456 842 340 813 396 842 b 656 724 533 842 596 799 l 811 914 b 460 1065 718 1013 603 1065 b 78 722 236 1065 78 915 b 571 306 78 347 571 479 b 436 211 571 246 507 211 b 171 369 329 211 253 276 l -3 178 b 431 -17 99 61 261 -17 b 838 325 656 -17 838 119 z "},"Ș":{"ha":861,"x_min":0,"x_max":0,"o":"m 838 325 b 340 749 838 708 340 590 b 456 842 340 813 396 842 b 656 724 533 842 596 799 l 811 914 b 460 1065 718 1013 603 1065 b 78 722 236 1065 78 915 b 571 306 78 347 571 479 b 436 211 571 246 507 211 b 171 369 329 211 253 276 l -3 178 b 431 -17 99 61 261 -17 b 838 325 656 -17 838 119 z m 539 -46 l 325 -46 l 325 -158 l 124 -158 l 124 -347 l 539 -347 z "},"ẞ":{"ha":861,"x_min":0,"x_max":0,"o":"m 403 546 b 597 394 519 546 597 496 b 406 243 597 293 524 243 l 406 0 b 858 396 632 0 858 126 b 711 679 858 519 814 614 l 853 1047 l 47 1047 l 47 0 l 319 0 l 319 824 l 496 824 z "},"Ŧ":{"ha":861,"x_min":0,"x_max":0,"o":"m 167 647 l 167 424 l 294 424 l 294 0 l 567 0 l 567 424 l 694 424 l 694 647 l 567 647 l 567 824 l 847 824 l 847 1047 l 14 1047 l 14 824 l 294 824 l 294 647 z "},"Ť":{"ha":861,"x_min":0,"x_max":0,"o":"m 431 1093 l 758 1404 l 519 1404 l 431 1319 l 342 1404 l 103 1404 z m 847 824 l 847 1047 l 14 1047 l 14 824 l 294 824 l 294 0 l 567 0 l 567 824 z "},"Ţ":{"ha":861,"x_min":0,"x_max":0,"o":"m 847 824 l 847 1047 l 14 1047 l 14 824 l 294 824 l 294 0 l 567 0 l 567 824 z m 129 -347 l 392 -347 l 565 -100 l 303 -100 z "},"Ț":{"ha":861,"x_min":0,"x_max":0,"o":"m 847 824 l 847 1047 l 14 1047 l 14 824 l 294 824 l 294 0 l 567 0 l 567 824 z m 539 -46 l 325 -46 l 325 -158 l 124 -158 l 124 -347 l 539 -347 z "},"Þ":{"ha":861,"x_min":0,"x_max":0,"o":"m 333 190 l 407 190 b 828 535 657 190 828 321 b 407 881 828 750 657 881 l 333 881 l 333 1047 l 61 1047 l 61 0 l 333 0 z m 333 660 l 406 660 b 550 535 496 660 550 611 b 406 411 550 460 496 411 l 333 411 z "},"Ú":{"ha":861,"x_min":0,"x_max":0,"o":"m 290 1103 l 558 1103 l 782 1368 l 514 1368 z m 431 222 b 307 372 356 222 307 274 l 307 1047 l 35 1047 l 35 379 b 431 -17 35 128 206 -17 b 826 379 656 -17 826 128 l 826 1047 l 554 1047 l 554 372 b 431 222 554 274 506 222 z "},"Ŭ":{"ha":861,"x_min":0,"x_max":0,"o":"m 431 1094 b 714 1369 582 1094 711 1201 l 508 1369 b 431 1281 507 1317 482 1281 b 351 1369 378 1281 353 1317 l 147 1369 b 431 1094 150 1201 279 1094 z m 431 222 b 307 372 356 222 307 274 l 307 1047 l 35 1047 l 35 379 b 431 -17 35 128 206 -17 b 826 379 656 -17 826 128 l 826 1047 l 554 1047 l 554 372 b 431 222 554 274 506 222 z "},"Û":{"ha":861,"x_min":0,"x_max":0,"o":"m 431 1406 l 103 1094 l 342 1094 l 431 1179 l 519 1094 l 758 1094 z m 431 222 b 307 372 356 222 307 274 l 307 1047 l 35 1047 l 35 379 b 431 -17 35 128 206 -17 b 826 379 656 -17 826 128 l 826 1047 l 554 1047 l 554 372 b 431 222 554 274 506 222 z "},"Ü":{"ha":861,"x_min":0,"x_max":0,"o":"m 240 1118 b 396 1269 325 1118 396 1185 b 240 1424 396 1356 325 1424 b 86 1269 157 1424 86 1356 b 240 1118 86 1185 157 1118 z m 621 1118 b 775 1269 704 1118 775 1185 b 621 1424 775 1356 704 1424 b 465 1269 536 1424 465 1356 b 621 1118 465 1185 536 1118 z m 431 222 b 307 372 356 222 307 274 l 307 1047 l 35 1047 l 35 379 b 431 -17 35 128 206 -17 b 826 379 656 -17 826 128 l 826 1047 l 554 1047 l 554 372 b 431 222 554 274 506 222 z "},"Ù":{"ha":861,"x_min":0,"x_max":0,"o":"m 569 1103 l 346 1368 l 78 1368 l 301 1103 z m 431 222 b 307 372 356 222 307 274 l 307 1047 l 35 1047 l 35 379 b 431 -17 35 128 206 -17 b 826 379 656 -17 826 128 l 826 1047 l 554 1047 l 554 372 b 431 222 554 274 506 222 z "},"Ű":{"ha":861,"x_min":0,"x_max":0,"o":"m 133 1103 l 368 1103 l 597 1368 l 363 1368 z m 456 1103 l 690 1103 l 919 1368 l 685 1368 z m 431 222 b 307 372 356 222 307 274 l 307 1047 l 35 1047 l 35 379 b 431 -17 35 128 206 -17 b 826 379 656 -17 826 128 l 826 1047 l 554 1047 l 554 372 b 431 222 554 274 506 222 z "},"Ū":{"ha":861,"x_min":0,"x_max":0,"o":"m 181 1138 l 681 1138 l 681 1342 l 181 1342 z m 431 222 b 307 372 356 222 307 274 l 307 1047 l 35 1047 l 35 379 b 431 -17 35 128 206 -17 b 826 379 656 -17 826 128 l 826 1047 l 554 1047 l 554 372 b 431 222 554 274 506 222 z "},"Ų":{"ha":861,"x_min":0,"x_max":0,"o":"m 431 222 b 307 372 356 222 307 274 l 307 1047 l 35 1047 l 35 379 b 363 -12 35 154 172 15 l 342 -31 b 264 -196 288 -81 264 -140 b 450 -364 264 -296 339 -364 b 664 -147 585 -364 660 -271 l 499 -147 b 469 -185 499 -169 488 -185 b 442 -156 454 -185 442 -174 b 465 -111 442 -140 450 -126 l 582 8 b 826 379 728 58 826 188 l 826 1047 l 554 1047 l 554 372 b 431 222 554 274 506 222 z "},"Ů":{"ha":861,"x_min":0,"x_max":0,"o":"m 183 1349 b 429 1106 183 1213 293 1106 b 675 1349 565 1106 675 1213 b 429 1592 675 1485 565 1592 b 183 1349 293 1592 183 1485 z m 429 1286 b 367 1349 394 1286 367 1314 b 429 1411 367 1383 394 1411 b 492 1349 464 1411 492 1383 b 429 1286 492 1314 464 1286 z m 431 222 b 307 372 356 222 307 274 l 307 1047 l 35 1047 l 35 379 b 431 -17 35 128 206 -17 b 826 379 656 -17 826 128 l 826 1047 l 554 1047 l 554 372 b 431 222 554 274 506 222 z "},"Ũ":{"ha":861,"x_min":0,"x_max":0,"o":"m 564 1369 b 518 1304 564 1326 546 1304 b 299 1382 464 1304 410 1382 b 110 1117 175 1382 110 1254 l 297 1117 b 343 1183 297 1160 317 1183 b 563 1106 399 1183 453 1106 b 751 1369 686 1106 751 1233 z m 431 222 b 307 372 356 222 307 274 l 307 1047 l 35 1047 l 35 379 b 431 -17 35 128 206 -17 b 826 379 656 -17 826 128 l 826 1047 l 554 1047 l 554 372 b 431 222 554 274 506 222 z "},"Ẃ":{"ha":861,"x_min":0,"x_max":0,"o":"m 290 1103 l 558 1103 l 782 1368 l 514 1368 z m 433 1078 l 321 660 l 250 1047 l 0 1047 l 247 -43 l 431 478 l 614 -43 l 861 1047 l 615 1047 l 544 660 z "},"Ŵ":{"ha":861,"x_min":0,"x_max":0,"o":"m 431 1406 l 103 1094 l 342 1094 l 431 1179 l 519 1094 l 758 1094 z m 433 1078 l 321 660 l 250 1047 l 0 1047 l 247 -43 l 431 478 l 614 -43 l 861 1047 l 615 1047 l 544 660 z "},"Ẁ":{"ha":861,"x_min":0,"x_max":0,"o":"m 569 1103 l 346 1368 l 78 1368 l 301 1103 z m 433 1078 l 321 660 l 250 1047 l 0 1047 l 247 -43 l 431 478 l 614 -43 l 861 1047 l 615 1047 l 544 660 z "},"Ẅ":{"ha":861,"x_min":0,"x_max":0,"o":"m 240 1118 b 396 1269 325 1118 396 1185 b 240 1424 396 1356 325 1424 b 86 1269 157 1424 86 1356 b 240 1118 86 1185 157 1118 z m 621 1118 b 775 1269 704 1118 775 1185 b 621 1424 775 1356 704 1424 b 465 1269 536 1424 465 1356 b 621 1118 465 1185 536 1118 z m 433 1078 l 321 660 l 250 1047 l 0 1047 l 247 -43 l 431 478 l 614 -43 l 861 1047 l 615 1047 l 544 660 z "},"Ý":{"ha":861,"x_min":0,"x_max":0,"o":"m 290 1103 l 558 1103 l 782 1368 l 514 1368 z m 567 0 l 567 432 l 860 1047 l 564 1047 l 429 749 l 296 1047 l 0 1047 l 293 432 l 293 0 z "},"Ŷ":{"ha":861,"x_min":0,"x_max":0,"o":"m 431 1406 l 103 1094 l 342 1094 l 431 1179 l 519 1094 l 758 1094 z m 567 0 l 567 432 l 860 1047 l 564 1047 l 429 749 l 296 1047 l 0 1047 l 293 432 l 293 0 z "},"Ÿ":{"ha":861,"x_min":0,"x_max":0,"o":"m 240 1118 b 396 1269 325 1118 396 1185 b 240 1424 396 1356 325 1424 b 86 1269 157 1424 86 1356 b 240 1118 86 1185 157 1118 z m 621 1118 b 775 1269 704 1118 775 1185 b 621 1424 775 1356 704 1424 b 465 1269 536 1424 465 1356 b 621 1118 465 1185 536 1118 z m 567 0 l 567 432 l 860 1047 l 564 1047 l 429 749 l 296 1047 l 0 1047 l 293 432 l 293 0 z "},"Ỳ":{"ha":861,"x_min":0,"x_max":0,"o":"m 569 1103 l 346 1368 l 78 1368 l 301 1103 z m 567 0 l 567 432 l 860 1047 l 564 1047 l 429 749 l 296 1047 l 0 1047 l 293 432 l 293 0 z "},"Ź":{"ha":861,"x_min":0,"x_max":0,"o":"m 290 1103 l 558 1103 l 782 1368 l 514 1368 z m 435 824 l 1 0 l 839 0 l 839 224 l 425 224 l 858 1047 l 29 1047 l 29 824 z "},"Ž":{"ha":861,"x_min":0,"x_max":0,"o":"m 431 1093 l 758 1404 l 519 1404 l 431 1319 l 342 1404 l 103 1404 z m 435 824 l 1 0 l 839 0 l 839 224 l 425 224 l 858 1047 l 29 1047 l 29 824 z "},"Ż":{"ha":861,"x_min":0,"x_max":0,"o":"m 431 1117 b 593 1276 519 1117 593 1186 b 431 1438 593 1367 519 1438 b 268 1276 342 1438 268 1367 b 431 1117 268 1186 342 1117 z m 435 824 l 1 0 l 839 0 l 839 224 l 425 224 l 858 1047 l 29 1047 l 29 824 z "},"a":{"ha":861,"x_min":0,"x_max":0,"o":"m 553 719 l 553 672 b 360 736 515 703 451 736 b 19 360 169 736 19 576 b 360 -17 19 143 169 -17 b 553 47 451 -17 515 17 l 553 0 l 811 0 l 811 719 z m 275 360 b 417 517 275 453 336 517 b 558 360 499 517 558 453 b 417 203 558 267 499 203 b 275 360 336 203 275 267 z "},"b":{"ha":861,"x_min":0,"x_max":0,"o":"m 308 1119 l 50 1119 l 50 0 l 308 0 l 308 47 b 501 -17 346 17 410 -17 b 842 360 692 -17 842 143 b 501 736 842 576 692 736 b 308 672 410 736 346 703 z m 586 360 b 444 203 586 267 525 203 b 303 360 363 203 303 267 b 444 517 303 453 363 517 b 586 360 525 517 586 453 z "},"c":{"ha":861,"x_min":0,"x_max":0,"o":"m 561 736 b 149 360 342 736 149 582 b 561 -17 149 138 342 -17 b 707 1 615 -17 664 -11 l 707 240 b 571 207 667 221 631 207 b 389 360 476 207 389 264 b 571 513 389 456 476 513 b 707 479 631 513 667 499 l 707 718 b 561 736 664 731 615 736 z "},"d":{"ha":861,"x_min":0,"x_max":0,"o":"m 553 1119 l 553 672 b 360 736 515 703 451 736 b 19 360 169 736 19 576 b 360 -17 19 143 169 -17 b 553 47 451 -17 515 17 l 553 0 l 811 0 l 811 1119 z m 275 360 b 417 517 275 453 336 517 b 558 360 499 517 558 453 b 417 203 558 267 499 203 b 275 360 336 203 275 267 z "},"e":{"ha":861,"x_min":0,"x_max":0,"o":"m 438 185 b 297 285 374 185 319 219 l 804 285 b 436 736 835 535 688 736 b 54 360 232 736 54 582 b 436 -17 54 139 232 -17 b 796 231 606 -17 751 67 l 553 231 b 438 185 529 197 492 185 z m 436 532 b 561 438 511 532 554 481 l 300 438 b 436 532 322 499 375 532 z "},"f":{"ha":861,"x_min":0,"x_max":0,"o":"m 46 517 l 301 517 l 301 0 l 556 0 l 556 517 l 815 517 l 815 719 l 556 719 l 556 749 b 706 910 556 840 614 910 b 815 881 744 910 783 901 l 815 1110 b 661 1136 778 1128 725 1136 b 301 760 440 1136 301 981 l 301 719 l 46 719 z "},"g":{"ha":861,"x_min":0,"x_max":0,"o":"m 811 -4 l 811 719 l 553 719 l 553 672 b 360 736 515 703 451 736 b 19 360 169 736 19 576 b 360 -17 19 143 169 -17 b 553 47 451 -17 515 17 l 553 -18 b 410 -153 553 -106 493 -153 b 272 -32 331 -153 278 -101 l 21 -32 b 410 -364 35 -239 200 -364 b 811 -4 621 -364 811 -222 z m 275 360 b 417 517 275 453 336 517 b 558 360 499 517 558 453 b 417 203 558 267 499 203 b 275 360 336 203 275 267 z "},"h":{"ha":861,"x_min":0,"x_max":0,"o":"m 528 397 l 528 0 l 786 0 l 786 469 b 524 736 786 633 685 736 b 339 665 444 736 379 706 l 339 1119 l 81 1119 l 81 0 l 339 0 l 339 397 b 433 504 339 454 371 504 b 528 397 494 504 528 454 z "},"i":{"ha":861,"x_min":0,"x_max":0,"o":"m 417 815 b 579 975 506 815 579 885 b 417 1136 579 1065 506 1136 b 254 975 328 1136 254 1065 b 417 815 254 885 328 815 z m 69 0 l 814 0 l 814 203 l 571 203 l 571 719 l 69 719 l 69 517 l 313 517 l 313 203 l 69 203 z "},"j":{"ha":861,"x_min":0,"x_max":0,"o":"m 376 975 b 539 815 376 885 450 815 b 701 975 628 815 701 885 b 539 1136 701 1065 628 1136 b 376 975 450 1136 376 1065 z m 410 -347 l 668 -347 l 668 719 l 56 719 l 56 517 l 410 517 z "},"k":{"ha":861,"x_min":0,"x_max":0,"o":"m 579 0 l 875 0 l 593 382 l 868 719 l 572 719 l 338 419 l 338 1119 l 81 1119 l 81 0 l 338 0 l 338 331 z "},"l":{"ha":861,"x_min":0,"x_max":0,"o":"m 69 0 l 814 0 l 814 203 l 571 203 l 571 1119 l 69 1119 l 69 917 l 313 917 l 313 203 l 69 203 z "},"m":{"ha":861,"x_min":0,"x_max":0,"o":"m 497 664 b 367 736 469 707 429 736 b 232 665 310 736 258 708 l 232 719 l 28 719 l 28 0 l 238 0 l 238 475 b 285 546 238 515 249 546 b 332 475 321 546 332 515 l 332 0 l 542 0 l 542 475 b 589 546 542 515 553 546 b 636 475 625 546 636 515 l 636 0 l 846 0 l 846 511 b 661 736 846 653 771 736 b 497 664 586 736 533 707 z "},"n":{"ha":861,"x_min":0,"x_max":0,"o":"m 528 397 l 528 0 l 786 0 l 786 469 b 524 736 786 633 685 736 b 339 665 444 736 379 706 l 339 719 l 81 719 l 81 0 l 339 0 l 339 397 b 433 504 339 454 371 504 b 528 397 494 504 528 454 z "},"o":{"ha":861,"x_min":0,"x_max":0,"o":"m 38 360 b 431 -17 38 139 218 -17 b 824 360 643 -17 824 139 b 431 736 824 581 643 736 b 38 360 218 736 38 581 z m 293 360 b 431 517 293 454 350 517 b 568 360 511 517 568 454 b 431 203 568 265 511 203 b 293 360 350 203 293 265 z "},"p":{"ha":861,"x_min":0,"x_max":0,"o":"m 308 719 l 50 719 l 50 -347 l 308 -347 l 308 47 b 501 -17 346 17 410 -17 b 842 360 692 -17 842 143 b 501 736 842 576 692 736 b 308 672 410 736 346 703 z m 586 360 b 444 203 586 267 525 203 b 303 360 363 203 303 267 b 444 517 303 453 363 517 b 586 360 525 517 586 453 z "},"q":{"ha":861,"x_min":0,"x_max":0,"o":"m 553 719 l 553 672 b 360 736 515 703 451 736 b 19 360 169 736 19 576 b 360 -17 19 143 169 -17 b 553 47 451 -17 515 17 l 553 -347 l 811 -347 l 811 719 z m 275 360 b 417 517 275 453 336 517 b 558 360 499 517 558 453 b 417 203 558 267 499 203 b 275 360 336 203 275 267 z "},"r":{"ha":861,"x_min":0,"x_max":0,"o":"m 563 390 l 563 288 l 817 288 l 817 451 b 540 736 817 626 713 736 b 339 661 456 736 382 704 l 339 719 l 81 719 l 81 0 l 339 0 l 339 390 b 450 514 339 457 378 514 b 563 390 522 514 563 457 z "},"s":{"ha":861,"x_min":0,"x_max":0,"o":"m 57 82 b 400 -17 128 21 276 -17 b 760 240 600 -17 760 74 b 357 514 760 504 357 421 b 429 554 357 540 385 554 b 632 476 496 554 567 531 l 746 636 b 424 736 678 693 561 736 b 90 482 235 736 90 639 b 499 210 90 197 499 307 b 414 169 499 182 464 169 b 158 261 340 169 233 203 z "},"t":{"ha":861,"x_min":0,"x_max":0,"o":"m 46 517 l 301 517 l 301 0 l 560 0 l 560 517 l 815 517 l 815 719 l 560 719 l 560 942 l 301 942 l 301 719 l 46 719 z "},"u":{"ha":861,"x_min":0,"x_max":0,"o":"m 431 201 b 336 313 369 201 336 243 l 336 719 l 78 719 l 78 308 b 431 -17 78 110 225 -17 b 783 308 636 -17 783 110 l 783 719 l 525 719 l 525 313 b 431 201 525 243 492 201 z "},"v":{"ha":861,"x_min":0,"x_max":0,"o":"m 431 -42 l 861 719 l 589 719 l 438 417 l 286 719 l 0 719 z "},"w":{"ha":861,"x_min":0,"x_max":0,"o":"m 433 750 l 307 478 l 236 719 l 0 719 l 247 -43 l 431 331 l 614 -43 l 861 719 l 629 719 l 558 478 z "},"x":{"ha":861,"x_min":0,"x_max":0,"o":"m 39 719 l 285 364 l 22 0 l 296 0 l 425 196 l 553 0 l 840 0 l 581 374 l 824 719 l 553 719 l 436 544 l 326 719 z "},"y":{"ha":861,"x_min":0,"x_max":0,"o":"m 28 -347 l 296 -347 l 869 719 l 594 719 l 433 417 l 282 719 l 3 719 l 297 160 z "},"z":{"ha":861,"x_min":0,"x_max":0,"o":"m 388 517 l 51 0 l 774 0 l 774 203 l 447 203 l 783 719 l 71 719 l 71 517 z "},"á":{"ha":861,"x_min":0,"x_max":0,"o":"m 317 825 l 579 825 l 767 1090 l 504 1090 z m 553 719 l 553 672 b 360 736 515 703 451 736 b 19 360 169 736 19 576 b 360 -17 19 143 169 -17 b 553 47 451 -17 515 17 l 553 0 l 811 0 l 811 719 z m 275 360 b 417 517 275 453 336 517 b 558 360 499 517 558 453 b 417 203 558 267 499 203 b 275 360 336 203 275 267 z "},"ă":{"ha":861,"x_min":0,"x_max":0,"o":"m 457 825 b 731 1092 603 825 728 929 l 524 1092 b 457 1010 522 1043 500 1010 b 389 1092 413 1010 390 1043 l 183 1092 b 457 825 186 929 311 825 z m 553 719 l 553 672 b 360 736 515 703 451 736 b 19 360 169 736 19 576 b 360 -17 19 143 169 -17 b 553 47 451 -17 515 17 l 553 0 l 811 0 l 811 719 z m 275 360 b 417 517 275 453 336 517 b 558 360 499 517 558 453 b 417 203 558 267 499 203 b 275 360 336 203 275 267 z "},"â":{"ha":861,"x_min":0,"x_max":0,"o":"m 457 1136 l 144 818 l 371 818 l 457 901 l 543 818 l 769 818 z m 553 719 l 553 672 b 360 736 515 703 451 736 b 19 360 169 736 19 576 b 360 -17 19 143 169 -17 b 553 47 451 -17 515 17 l 553 0 l 811 0 l 811 719 z m 275 360 b 417 517 275 453 336 517 b 558 360 499 517 558 453 b 417 203 558 267 499 203 b 275 360 336 203 275 267 z "},"ä":{"ha":861,"x_min":0,"x_max":0,"o":"m 278 831 b 433 982 363 831 433 897 b 278 1136 433 1068 363 1136 b 124 982 194 1136 124 1068 b 278 831 124 897 194 831 z m 636 831 b 790 982 719 831 790 897 b 636 1136 790 1068 719 1136 b 481 982 551 1136 481 1068 b 636 831 481 897 551 831 z m 553 719 l 553 672 b 360 736 515 703 451 736 b 19 360 169 736 19 576 b 360 -17 19 143 169 -17 b 553 47 451 -17 515 17 l 553 0 l 811 0 l 811 719 z m 275 360 b 417 517 275 453 336 517 b 558 360 499 517 558 453 b 417 203 558 267 499 203 b 275 360 336 203 275 267 z "},"à":{"ha":861,"x_min":0,"x_max":0,"o":"m 588 825 l 400 1090 l 138 1090 l 325 825 z m 553 719 l 553 672 b 360 736 515 703 451 736 b 19 360 169 736 19 576 b 360 -17 19 143 169 -17 b 553 47 451 -17 515 17 l 553 0 l 811 0 l 811 719 z m 275 360 b 417 517 275 453 336 517 b 558 360 499 517 558 453 b 417 203 558 267 499 203 b 275 360 336 203 275 267 z "},"ā":{"ha":861,"x_min":0,"x_max":0,"o":"m 207 861 l 707 861 l 707 1065 l 207 1065 z m 553 719 l 553 672 b 360 736 515 703 451 736 b 19 360 169 736 19 576 b 360 -17 19 143 169 -17 b 553 47 451 -17 515 17 l 553 0 l 811 0 l 811 719 z m 275 360 b 417 517 275 453 336 517 b 558 360 499 517 558 453 b 417 203 558 267 499 203 b 275 360 336 203 275 267 z "},"ą":{"ha":861,"x_min":0,"x_max":0,"o":"m 553 719 l 553 672 b 360 736 515 703 451 736 b 19 360 169 736 19 576 b 360 -17 19 143 169 -17 b 553 47 451 -17 515 17 l 553 3 l 518 -31 b 438 -196 464 -82 438 -137 b 624 -364 438 -296 513 -364 b 838 -147 758 -364 833 -271 l 672 -147 b 643 -185 672 -169 661 -185 b 615 -156 628 -185 615 -174 b 639 -111 615 -140 624 -126 l 747 0 l 811 0 l 811 719 z m 275 360 b 417 517 275 453 336 517 b 558 360 499 517 558 453 b 417 203 558 267 499 203 b 275 360 336 203 275 267 z "},"å":{"ha":861,"x_min":0,"x_max":0,"o":"m 211 1028 b 457 785 211 892 321 785 b 703 1028 593 785 703 892 b 457 1271 703 1164 593 1271 b 211 1028 321 1271 211 1164 z m 457 965 b 394 1028 422 965 394 993 b 457 1090 394 1063 422 1090 b 519 1028 492 1090 519 1063 b 457 965 519 993 492 965 z m 553 719 l 553 672 b 360 736 515 703 451 736 b 19 360 169 736 19 576 b 360 -17 19 143 169 -17 b 553 47 451 -17 515 17 l 553 0 l 811 0 l 811 719 z m 275 360 b 417 517 275 453 336 517 b 558 360 499 517 558 453 b 417 203 558 267 499 203 b 275 360 336 203 275 267 z "},"ã":{"ha":861,"x_min":0,"x_max":0,"o":"m 579 1092 b 533 1026 579 1049 561 1026 b 336 1104 485 1026 436 1104 b 147 839 213 1104 147 976 l 335 839 b 381 906 335 882 354 906 b 578 828 431 906 479 828 b 767 1092 701 828 767 956 z m 553 719 l 553 672 b 360 736 515 703 451 736 b 19 360 169 736 19 576 b 360 -17 19 143 169 -17 b 553 47 451 -17 515 17 l 553 0 l 811 0 l 811 719 z m 275 360 b 417 517 275 453 336 517 b 558 360 499 517 558 453 b 417 203 558 267 499 203 b 275 360 336 203 275 267 z "},"æ":{"ha":861,"x_min":0,"x_max":0,"o":"m 857 231 l 664 231 b 594 188 654 206 626 188 b 493 286 547 188 508 221 l 860 286 b 589 736 875 532 776 736 b 419 660 526 736 467 708 b 239 736 379 710 318 736 b 49 683 167 736 93 714 l 49 465 b 200 519 90 496 143 519 b 313 422 269 519 308 485 b 233 436 289 431 263 436 b 0 215 119 438 0 365 b 224 -17 0 68 110 -17 b 410 72 296 -17 367 17 b 601 -17 461 15 529 -17 b 857 231 715 -17 828 61 z m 582 532 b 668 438 640 532 663 481 l 493 438 b 582 532 507 499 539 532 z m 186 215 b 260 279 186 256 219 279 b 319 258 281 279 301 274 b 338 196 324 236 331 215 b 260 153 317 165 288 153 b 186 215 221 153 186 175 z "},"ǽ":{"ha":861,"x_min":0,"x_max":0,"o":"m 290 825 l 553 825 l 740 1090 l 478 1090 z m 857 231 l 664 231 b 594 188 654 206 626 188 b 493 286 547 188 508 221 l 860 286 b 589 736 875 532 776 736 b 419 660 526 736 467 708 b 239 736 379 710 318 736 b 49 683 167 736 93 714 l 49 465 b 200 519 90 496 143 519 b 313 422 269 519 308 485 b 233 436 289 431 263 436 b 0 215 119 438 0 365 b 224 -17 0 68 110 -17 b 410 72 296 -17 367 17 b 601 -17 461 15 529 -17 b 857 231 715 -17 828 61 z m 582 532 b 668 438 640 532 663 481 l 493 438 b 582 532 507 499 539 532 z m 186 215 b 260 279 186 256 219 279 b 319 258 281 279 301 274 b 338 196 324 236 331 215 b 260 153 317 165 288 153 b 186 215 221 153 186 175 z "},"ć":{"ha":861,"x_min":0,"x_max":0,"o":"m 375 825 l 638 825 l 825 1090 l 563 1090 z m 561 736 b 149 360 342 736 149 582 b 561 -17 149 138 342 -17 b 707 1 615 -17 664 -11 l 707 240 b 571 207 667 221 631 207 b 389 360 476 207 389 264 b 571 513 389 456 476 513 b 707 479 631 513 667 499 l 707 718 b 561 736 664 731 615 736 z "},"č":{"ha":861,"x_min":0,"x_max":0,"o":"m 515 801 l 828 1119 l 601 1119 l 515 1036 l 429 1119 l 203 1119 z m 561 736 b 149 360 342 736 149 582 b 561 -17 149 138 342 -17 b 707 1 615 -17 664 -11 l 707 240 b 571 207 667 221 631 207 b 389 360 476 207 389 264 b 571 513 389 456 476 513 b 707 479 631 513 667 499 l 707 718 b 561 736 664 731 615 736 z "},"ç":{"ha":861,"x_min":0,"x_max":0,"o":"m 561 736 b 149 360 342 736 149 582 b 561 -17 149 138 342 -17 b 707 1 615 -17 664 -11 l 707 240 b 571 207 667 221 631 207 b 389 360 476 207 389 264 b 571 513 389 456 476 513 b 707 479 631 513 667 499 l 707 718 b 561 736 664 731 615 736 z m 242 -347 l 504 -347 l 678 -100 l 415 -100 z "},"ĉ":{"ha":861,"x_min":0,"x_max":0,"o":"m 515 1136 l 203 818 l 429 818 l 515 901 l 601 818 l 828 818 z m 561 736 b 149 360 342 736 149 582 b 561 -17 149 138 342 -17 b 707 1 615 -17 664 -11 l 707 240 b 571 207 667 221 631 207 b 389 360 476 207 389 264 b 571 513 389 456 476 513 b 707 479 631 513 667 499 l 707 718 b 561 736 664 731 615 736 z "},"ċ":{"ha":861,"x_min":0,"x_max":0,"o":"m 515 815 b 678 975 604 815 678 885 b 515 1136 678 1065 604 1136 b 353 975 426 1136 353 1065 b 515 815 353 885 426 815 z m 561 736 b 149 360 342 736 149 582 b 561 -17 149 138 342 -17 b 707 1 615 -17 664 -11 l 707 240 b 571 207 667 221 631 207 b 389 360 476 207 389 264 b 571 513 389 456 476 513 b 707 479 631 513 667 499 l 707 718 b 561 736 664 731 615 736 z "},"ď":{"ha":861,"x_min":0,"x_max":0,"o":"m 449 1119 l 449 676 b 307 736 422 708 378 736 b 19 360 132 736 19 576 b 307 -17 19 143 132 -17 b 449 43 378 -17 422 11 l 449 0 l 700 0 l 700 1119 z m 715 756 l 889 756 l 913 1119 l 739 1119 z m 268 360 b 361 517 268 453 304 517 b 454 360 419 517 454 453 b 361 203 454 267 419 203 b 268 360 304 203 268 267 z "},"đ":{"ha":861,"x_min":0,"x_max":0,"o":"m 553 1119 l 553 1033 l 353 1033 l 353 832 l 553 832 l 553 672 b 360 736 515 703 451 736 b 19 360 169 736 19 576 b 360 -17 19 143 169 -17 b 553 47 451 -17 515 17 l 553 0 l 811 0 l 811 832 l 875 832 l 875 1033 l 811 1033 l 811 1119 z m 275 360 b 417 517 275 453 336 517 b 558 360 499 517 558 453 b 417 203 558 267 499 203 b 275 360 336 203 275 267 z "},"é":{"ha":861,"x_min":0,"x_max":0,"o":"m 297 825 l 560 825 l 747 1090 l 485 1090 z m 438 185 b 297 285 374 185 319 219 l 804 285 b 436 736 835 535 688 736 b 54 360 232 736 54 582 b 436 -17 54 139 232 -17 b 796 231 606 -17 751 67 l 553 231 b 438 185 529 197 492 185 z m 436 532 b 561 438 511 532 554 481 l 300 438 b 436 532 322 499 375 532 z "},"ĕ":{"ha":861,"x_min":0,"x_max":0,"o":"m 438 825 b 711 1092 583 825 708 929 l 504 1092 b 438 1010 503 1043 481 1010 b 369 1092 393 1010 371 1043 l 164 1092 b 438 825 167 929 292 825 z m 438 185 b 297 285 374 185 319 219 l 804 285 b 436 736 835 535 688 736 b 54 360 232 736 54 582 b 436 -17 54 139 232 -17 b 796 231 606 -17 751 67 l 553 231 b 438 185 529 197 492 185 z m 436 532 b 561 438 511 532 554 481 l 300 438 b 436 532 322 499 375 532 z "},"ě":{"ha":861,"x_min":0,"x_max":0,"o":"m 438 801 l 750 1119 l 524 1119 l 438 1036 l 351 1119 l 125 1119 z m 438 185 b 297 285 374 185 319 219 l 804 285 b 436 736 835 535 688 736 b 54 360 232 736 54 582 b 436 -17 54 139 232 -17 b 796 231 606 -17 751 67 l 553 231 b 438 185 529 197 492 185 z m 436 532 b 561 438 511 532 554 481 l 300 438 b 436 532 322 499 375 532 z "},"ê":{"ha":861,"x_min":0,"x_max":0,"o":"m 438 1136 l 125 818 l 351 818 l 438 901 l 524 818 l 750 818 z m 438 185 b 297 285 374 185 319 219 l 804 285 b 436 736 835 535 688 736 b 54 360 232 736 54 582 b 436 -17 54 139 232 -17 b 796 231 606 -17 751 67 l 553 231 b 438 185 529 197 492 185 z m 436 532 b 561 438 511 532 554 481 l 300 438 b 436 532 322 499 375 532 z "},"ë":{"ha":861,"x_min":0,"x_max":0,"o":"m 258 831 b 414 982 343 831 414 897 b 258 1136 414 1068 343 1136 b 104 982 175 1136 104 1068 b 258 831 104 897 175 831 z m 617 831 b 771 982 700 831 771 897 b 617 1136 771 1068 700 1136 b 461 982 532 1136 461 1068 b 617 831 461 897 532 831 z m 438 185 b 297 285 374 185 319 219 l 804 285 b 436 736 835 535 688 736 b 54 360 232 736 54 582 b 436 -17 54 139 232 -17 b 796 231 606 -17 751 67 l 553 231 b 438 185 529 197 492 185 z m 436 532 b 561 438 511 532 554 481 l 300 438 b 436 532 322 499 375 532 z "},"ė":{"ha":861,"x_min":0,"x_max":0,"o":"m 438 815 b 600 975 526 815 600 885 b 438 1136 600 1065 526 1136 b 275 975 349 1136 275 1065 b 438 815 275 885 349 815 z m 438 185 b 297 285 374 185 319 219 l 804 285 b 436 736 835 535 688 736 b 54 360 232 736 54 582 b 436 -17 54 139 232 -17 b 796 231 606 -17 751 67 l 553 231 b 438 185 529 197 492 185 z m 436 532 b 561 438 511 532 554 481 l 300 438 b 436 532 322 499 375 532 z "},"è":{"ha":861,"x_min":0,"x_max":0,"o":"m 568 825 l 381 1090 l 118 1090 l 306 825 z m 438 185 b 297 285 374 185 319 219 l 804 285 b 436 736 835 535 688 736 b 54 360 232 736 54 582 b 436 -17 54 139 232 -17 b 796 231 606 -17 751 67 l 553 231 b 438 185 529 197 492 185 z m 436 532 b 561 438 511 532 554 481 l 300 438 b 436 532 322 499 375 532 z "},"ē":{"ha":861,"x_min":0,"x_max":0,"o":"m 188 861 l 688 861 l 688 1065 l 188 1065 z m 438 185 b 297 285 374 185 319 219 l 804 285 b 436 736 835 535 688 736 b 54 360 232 736 54 582 b 436 -17 54 139 232 -17 b 796 231 606 -17 751 67 l 553 231 b 438 185 529 197 492 185 z m 436 532 b 561 438 511 532 554 481 l 300 438 b 436 532 322 499 375 532 z "},"ę":{"ha":861,"x_min":0,"x_max":0,"o":"m 715 85 b 796 231 758 133 789 185 l 553 231 b 438 185 529 197 492 185 b 297 285 374 185 319 219 l 804 285 b 436 736 835 535 688 736 b 54 360 232 736 54 582 b 433 -17 54 140 231 -15 l 422 -28 b 336 -201 364 -86 336 -144 b 522 -364 336 -289 404 -364 b 736 -147 657 -364 732 -271 l 571 -147 b 542 -185 571 -169 560 -185 b 514 -157 526 -185 514 -175 b 547 -101 514 -142 522 -128 z m 436 532 b 561 438 511 532 554 481 l 300 438 b 436 532 322 499 375 532 z "},"ð":{"ha":861,"x_min":0,"x_max":0,"o":"m 429 719 b 38 360 219 719 38 581 b 431 -17 38 139 218 -17 b 824 400 643 -17 824 138 b 604 888 824 586 738 750 l 665 911 l 665 1100 l 454 1018 b 240 1150 389 1067 315 1111 l 81 1011 b 231 931 131 988 182 960 l 135 893 l 135 704 l 396 806 b 478 715 429 776 457 746 b 429 719 461 718 444 719 z m 431 203 b 293 360 350 203 293 265 b 431 517 293 454 350 517 b 568 360 511 517 568 454 b 431 203 568 265 511 203 z "},"ğ":{"ha":861,"x_min":0,"x_max":0,"o":"m 457 825 b 731 1092 603 825 728 929 l 524 1092 b 457 1010 522 1043 500 1010 b 389 1092 413 1010 390 1043 l 183 1092 b 457 825 186 929 311 825 z m 811 -4 l 811 719 l 553 719 l 553 672 b 360 736 515 703 451 736 b 19 360 169 736 19 576 b 360 -17 19 143 169 -17 b 553 47 451 -17 515 17 l 553 -18 b 410 -153 553 -106 493 -153 b 272 -32 331 -153 278 -101 l 21 -32 b 410 -364 35 -239 200 -364 b 811 -4 621 -364 811 -222 z m 275 360 b 417 517 275 453 336 517 b 558 360 499 517 558 453 b 417 203 558 267 499 203 b 275 360 336 203 275 267 z "},"ĝ":{"ha":861,"x_min":0,"x_max":0,"o":"m 457 1136 l 144 818 l 371 818 l 457 901 l 543 818 l 769 818 z m 811 -4 l 811 719 l 553 719 l 553 672 b 360 736 515 703 451 736 b 19 360 169 736 19 576 b 360 -17 19 143 169 -17 b 553 47 451 -17 515 17 l 553 -18 b 410 -153 553 -106 493 -153 b 272 -32 331 -153 278 -101 l 21 -32 b 410 -364 35 -239 200 -364 b 811 -4 621 -364 811 -222 z m 275 360 b 417 517 275 453 336 517 b 558 360 499 517 558 453 b 417 203 558 267 499 203 b 275 360 336 203 275 267 z "},"ģ":{"ha":861,"x_min":0,"x_max":0,"o":"m 343 818 l 557 818 l 557 931 l 758 931 l 758 1119 l 343 1119 z m 811 -4 l 811 719 l 553 719 l 553 672 b 360 736 515 703 451 736 b 19 360 169 736 19 576 b 360 -17 19 143 169 -17 b 553 47 451 -17 515 17 l 553 -18 b 410 -153 553 -106 493 -153 b 272 -32 331 -153 278 -101 l 21 -32 b 410 -364 35 -239 200 -364 b 811 -4 621 -364 811 -222 z m 275 360 b 417 517 275 453 336 517 b 558 360 499 517 558 453 b 417 203 558 267 499 203 b 275 360 336 203 275 267 z "},"ġ":{"ha":861,"x_min":0,"x_max":0,"o":"m 457 815 b 619 975 546 815 619 885 b 457 1136 619 1065 546 1136 b 294 975 368 1136 294 1065 b 457 815 294 885 368 815 z m 811 -4 l 811 719 l 553 719 l 553 672 b 360 736 515 703 451 736 b 19 360 169 736 19 576 b 360 -17 19 143 169 -17 b 553 47 451 -17 515 17 l 553 -18 b 410 -153 553 -106 493 -153 b 272 -32 331 -153 278 -101 l 21 -32 b 410 -364 35 -239 200 -364 b 811 -4 621 -364 811 -222 z m 275 360 b 417 517 275 453 336 517 b 558 360 499 517 558 453 b 417 203 558 267 499 203 b 275 360 336 203 275 267 z "},"ß":{"ha":861,"x_min":0,"x_max":0,"o":"m 418 496 b 594 364 519 496 594 456 b 418 232 594 275 521 232 l 418 0 b 843 358 626 0 843 113 b 656 647 843 492 767 590 b 788 881 724 692 788 769 b 444 1178 788 1049 654 1178 b 78 828 231 1178 78 1026 l 78 0 l 332 0 l 332 818 b 446 956 332 904 376 956 b 551 854 508 956 551 913 b 418 740 551 790 500 740 z "},"ħ":{"ha":861,"x_min":0,"x_max":0,"o":"m 528 397 l 528 0 l 786 0 l 786 469 b 524 736 786 633 685 736 b 339 665 444 736 379 706 l 339 832 l 542 832 l 542 1033 l 339 1033 l 339 1119 l 81 1119 l 81 1033 l 19 1033 l 19 832 l 81 832 l 81 0 l 339 0 l 339 397 b 433 504 339 454 371 504 b 528 397 494 504 528 454 z "},"ĥ":{"ha":861,"x_min":0,"x_max":0,"o":"m 433 1478 l 106 1167 l 344 1167 l 433 1251 l 522 1167 l 761 1167 z m 528 397 l 528 0 l 786 0 l 786 469 b 524 736 786 633 685 736 b 339 665 444 736 379 706 l 339 1119 l 81 1119 l 81 0 l 339 0 l 339 397 b 433 504 339 454 371 504 b 528 397 494 504 528 454 z "},"ı":{"ha":861,"x_min":0,"x_max":0,"o":"m 69 0 l 814 0 l 814 203 l 571 203 l 571 719 l 69 719 l 69 517 l 313 517 l 313 203 l 69 203 z "},"í":{"ha":861,"x_min":0,"x_max":0,"o":"m 299 825 l 561 825 l 749 1090 l 486 1090 z m 69 0 l 814 0 l 814 203 l 571 203 l 571 719 l 69 719 l 69 517 l 313 517 l 313 203 l 69 203 z "},"ĭ":{"ha":861,"x_min":0,"x_max":0,"o":"m 439 825 b 713 1092 585 825 710 929 l 506 1092 b 439 1010 504 1043 482 1010 b 371 1092 394 1010 372 1043 l 165 1092 b 439 825 168 929 293 825 z m 69 0 l 814 0 l 814 203 l 571 203 l 571 719 l 69 719 l 69 517 l 313 517 l 313 203 l 69 203 z "},"î":{"ha":861,"x_min":0,"x_max":0,"o":"m 439 1136 l 126 818 l 353 818 l 439 901 l 525 818 l 751 818 z m 69 0 l 814 0 l 814 203 l 571 203 l 571 719 l 69 719 l 69 517 l 313 517 l 313 203 l 69 203 z "},"ï":{"ha":861,"x_min":0,"x_max":0,"o":"m 260 831 b 415 982 344 831 415 897 b 260 1136 415 1068 344 1136 b 106 982 176 1136 106 1068 b 260 831 106 897 176 831 z m 618 831 b 772 982 701 831 772 897 b 618 1136 772 1068 701 1136 b 463 982 533 1136 463 1068 b 618 831 463 897 533 831 z m 69 0 l 814 0 l 814 203 l 571 203 l 571 719 l 69 719 l 69 517 l 313 517 l 313 203 l 69 203 z "},"ì":{"ha":861,"x_min":0,"x_max":0,"o":"m 569 825 l 382 1090 l 119 1090 l 307 825 z m 69 0 l 814 0 l 814 203 l 571 203 l 571 719 l 69 719 l 69 517 l 313 517 l 313 203 l 69 203 z "},"ī":{"ha":861,"x_min":0,"x_max":0,"o":"m 189 861 l 689 861 l 689 1065 l 189 1065 z m 69 0 l 814 0 l 814 203 l 571 203 l 571 719 l 69 719 l 69 517 l 313 517 l 313 203 l 69 203 z "},"į":{"ha":861,"x_min":0,"x_max":0,"o":"m 417 815 b 579 975 506 815 579 885 b 417 1136 579 1065 506 1136 b 254 975 328 1136 254 1065 b 417 815 254 885 328 815 z m 69 0 l 374 0 l 342 -31 b 261 -196 288 -82 261 -137 b 447 -364 261 -296 336 -364 b 661 -147 582 -364 657 -271 l 496 -147 b 467 -185 496 -169 485 -185 b 439 -156 451 -185 439 -174 b 463 -111 439 -140 447 -126 l 571 0 l 814 0 l 814 203 l 571 203 l 571 719 l 69 719 l 69 517 l 313 517 l 313 203 l 69 203 z "},"ĩ":{"ha":861,"x_min":0,"x_max":0,"o":"m 561 1092 b 515 1026 561 1049 543 1026 b 318 1104 467 1026 418 1104 b 129 839 194 1104 129 976 l 317 839 b 363 906 317 882 336 906 b 560 828 413 906 461 828 b 749 1092 683 828 749 956 z m 69 0 l 814 0 l 814 203 l 571 203 l 571 719 l 69 719 l 69 517 l 313 517 l 313 203 l 69 203 z "},"ĳ":{"ha":1722,"x_min":0,"x_max":0,"o":"m 529 815 b 692 975 618 815 692 885 b 529 1136 692 1065 618 1136 b 367 975 440 1136 367 1065 b 529 815 367 885 440 815 z m 1201 975 b 1364 815 1201 885 1275 815 b 1526 975 1453 815 1526 885 b 1364 1136 1526 1065 1453 1136 b 1201 975 1275 1136 1201 1065 z m 182 0 l 926 0 l 926 203 l 683 203 l 683 719 l 182 719 l 182 517 l 425 517 l 425 203 l 182 203 z m 1235 -347 l 1493 -347 l 1493 719 l 881 719 l 881 517 l 1235 517 z "},"ȷ":{"ha":861,"x_min":0,"x_max":0,"o":"m 56 517 l 410 517 l 410 -347 l 668 -347 l 668 719 l 56 719 z "},"ĵ":{"ha":861,"x_min":0,"x_max":0,"o":"m 529 1136 l 217 818 l 443 818 l 529 901 l 615 818 l 842 818 z m 56 517 l 410 517 l 410 -347 l 668 -347 l 668 719 l 56 719 z "},"ķ":{"ha":861,"x_min":0,"x_max":0,"o":"m 579 0 l 875 0 l 593 382 l 868 719 l 572 719 l 338 419 l 338 1119 l 81 1119 l 81 0 l 338 0 l 338 331 z m 558 -46 l 344 -46 l 344 -158 l 143 -158 l 143 -347 l 558 -347 z "},"ĸ":{"ha":861,"x_min":0,"x_max":0,"o":"m 579 0 l 875 0 l 593 382 l 868 719 l 572 719 l 338 419 l 338 719 l 81 719 l 81 0 l 338 0 l 338 331 z "},"ĺ":{"ha":861,"x_min":0,"x_max":0,"o":"m 301 1175 l 569 1175 l 793 1440 l 525 1440 z m 69 0 l 814 0 l 814 203 l 571 203 l 571 1119 l 69 1119 l 69 917 l 313 917 l 313 203 l 69 203 z "},"ľ":{"ha":861,"x_min":0,"x_max":0,"o":"m 69 0 l 814 0 l 814 203 l 571 203 l 571 1119 l 69 1119 l 69 917 l 313 917 l 313 203 l 69 203 z m 613 756 l 833 756 l 911 1119 l 690 1119 z "},"ļ":{"ha":861,"x_min":0,"x_max":0,"o":"m 69 0 l 814 0 l 814 203 l 571 203 l 571 1119 l 69 1119 l 69 917 l 313 917 l 313 203 l 69 203 z m 550 -46 l 336 -46 l 336 -158 l 135 -158 l 135 -347 l 550 -347 z "},"ŀ":{"ha":861,"x_min":0,"x_max":0,"o":"m 69 0 l 814 0 l 814 203 l 571 203 l 571 1119 l 69 1119 l 69 917 l 313 917 l 313 203 l 69 203 z m 874 446 b 1036 606 963 446 1036 515 b 874 767 1036 696 963 767 b 711 606 785 767 711 696 b 874 446 711 515 785 446 z "},"ł":{"ha":861,"x_min":0,"x_max":0,"o":"m 69 0 l 814 0 l 814 203 l 571 203 l 571 514 l 814 610 l 814 829 l 571 733 l 571 1119 l 69 1119 l 69 917 l 313 917 l 313 644 l 69 549 l 69 329 l 313 425 l 313 203 l 69 203 z "},"ń":{"ha":861,"x_min":0,"x_max":0,"o":"m 279 825 l 542 825 l 729 1090 l 467 1090 z m 528 397 l 528 0 l 786 0 l 786 469 b 524 736 786 633 685 736 b 339 665 444 736 379 706 l 339 719 l 81 719 l 81 0 l 339 0 l 339 397 b 433 504 339 454 371 504 b 528 397 494 504 528 454 z "},"ň":{"ha":861,"x_min":0,"x_max":0,"o":"m 419 801 l 732 1119 l 506 1119 l 419 1036 l 333 1119 l 107 1119 z m 528 397 l 528 0 l 786 0 l 786 469 b 524 736 786 633 685 736 b 339 665 444 736 379 706 l 339 719 l 81 719 l 81 0 l 339 0 l 339 397 b 433 504 339 454 371 504 b 528 397 494 504 528 454 z "},"ņ":{"ha":861,"x_min":0,"x_max":0,"o":"m 528 397 l 528 0 l 786 0 l 786 469 b 524 736 786 633 685 736 b 339 665 444 736 379 706 l 339 719 l 81 719 l 81 0 l 339 0 l 339 397 b 433 504 339 454 371 504 b 528 397 494 504 528 454 z m 542 -46 l 328 -46 l 328 -158 l 126 -158 l 126 -347 l 542 -347 z "},"ñ":{"ha":861,"x_min":0,"x_max":0,"o":"m 542 1092 b 496 1026 542 1049 524 1026 b 299 1104 447 1026 399 1104 b 110 839 175 1104 110 976 l 297 839 b 343 906 297 882 317 906 b 540 828 393 906 442 828 b 729 1092 664 828 729 956 z m 528 397 l 528 0 l 786 0 l 786 469 b 524 736 786 633 685 736 b 339 665 444 736 379 706 l 339 719 l 81 719 l 81 0 l 339 0 l 339 397 b 433 504 339 454 371 504 b 528 397 494 504 528 454 z "},"ŋ":{"ha":861,"x_min":0,"x_max":0,"o":"m 528 397 l 528 -347 l 786 -347 l 786 469 b 524 736 786 633 685 736 b 339 665 444 736 379 706 l 339 719 l 81 719 l 81 0 l 339 0 l 339 397 b 433 504 339 454 371 504 b 528 397 494 504 528 454 z "},"ó":{"ha":861,"x_min":0,"x_max":0,"o":"m 290 825 l 553 825 l 740 1090 l 478 1090 z m 38 360 b 431 -17 38 139 218 -17 b 824 360 643 -17 824 139 b 431 736 824 581 643 736 b 38 360 218 736 38 581 z m 293 360 b 431 517 293 454 350 517 b 568 360 511 517 568 454 b 431 203 568 265 511 203 b 293 360 350 203 293 265 z "},"ŏ":{"ha":861,"x_min":0,"x_max":0,"o":"m 431 825 b 704 1092 576 825 701 929 l 497 1092 b 431 1010 496 1043 474 1010 b 363 1092 386 1010 364 1043 l 157 1092 b 431 825 160 929 285 825 z m 38 360 b 431 -17 38 139 218 -17 b 824 360 643 -17 824 139 b 431 736 824 581 643 736 b 38 360 218 736 38 581 z m 293 360 b 431 517 293 454 350 517 b 568 360 511 517 568 454 b 431 203 568 265 511 203 b 293 360 350 203 293 265 z "},"ô":{"ha":861,"x_min":0,"x_max":0,"o":"m 431 1136 l 118 818 l 344 818 l 431 901 l 517 818 l 743 818 z m 38 360 b 431 -17 38 139 218 -17 b 824 360 643 -17 824 139 b 431 736 824 581 643 736 b 38 360 218 736 38 581 z m 293 360 b 431 517 293 454 350 517 b 568 360 511 517 568 454 b 431 203 568 265 511 203 b 293 360 350 203 293 265 z "},"ö":{"ha":861,"x_min":0,"x_max":0,"o":"m 251 831 b 407 982 336 831 407 897 b 251 1136 407 1068 336 1136 b 97 982 168 1136 97 1068 b 251 831 97 897 168 831 z m 610 831 b 764 982 693 831 764 897 b 610 1136 764 1068 693 1136 b 454 982 525 1136 454 1068 b 610 831 454 897 525 831 z m 38 360 b 431 -17 38 139 218 -17 b 824 360 643 -17 824 139 b 431 736 824 581 643 736 b 38 360 218 736 38 581 z m 293 360 b 431 517 293 454 350 517 b 568 360 511 517 568 454 b 431 203 568 265 511 203 b 293 360 350 203 293 265 z "},"ò":{"ha":861,"x_min":0,"x_max":0,"o":"m 561 825 l 374 1090 l 111 1090 l 299 825 z m 38 360 b 431 -17 38 139 218 -17 b 824 360 643 -17 824 139 b 431 736 824 581 643 736 b 38 360 218 736 38 581 z m 293 360 b 431 517 293 454 350 517 b 568 360 511 517 568 454 b 431 203 568 265 511 203 b 293 360 350 203 293 265 z "},"ő":{"ha":861,"x_min":0,"x_max":0,"o":"m 157 825 l 392 825 l 579 1090 l 344 1090 z m 463 825 l 697 825 l 885 1090 l 650 1090 z m 38 360 b 431 -17 38 139 218 -17 b 824 360 643 -17 824 139 b 431 736 824 581 643 736 b 38 360 218 736 38 581 z m 293 360 b 431 517 293 454 350 517 b 568 360 511 517 568 454 b 431 203 568 265 511 203 b 293 360 350 203 293 265 z "},"ō":{"ha":861,"x_min":0,"x_max":0,"o":"m 181 861 l 681 861 l 681 1065 l 181 1065 z m 38 360 b 431 -17 38 139 218 -17 b 824 360 643 -17 824 139 b 431 736 824 581 643 736 b 38 360 218 736 38 581 z m 293 360 b 431 517 293 454 350 517 b 568 360 511 517 568 454 b 431 203 568 265 511 203 b 293 360 350 203 293 265 z "},"ø":{"ha":861,"x_min":0,"x_max":0,"o":"m 38 360 b 99 154 38 282 60 211 l 4 56 l 118 -51 l 213 44 b 431 -17 275 6 351 -17 b 824 360 643 -17 824 139 b 763 565 824 438 801 508 l 857 664 l 743 771 l 649 675 b 431 736 586 714 510 736 b 38 360 218 736 38 581 z m 279 360 b 431 532 279 464 342 532 b 485 522 450 532 468 529 l 285 308 b 279 360 281 325 279 342 z m 582 360 b 431 188 582 256 519 188 b 376 197 411 188 393 190 l 576 411 b 582 360 581 394 582 378 z "},"ǿ":{"ha":861,"x_min":0,"x_max":0,"o":"m 290 825 l 553 825 l 740 1090 l 478 1090 z m 38 360 b 99 154 38 282 60 211 l 4 56 l 118 -51 l 213 44 b 431 -17 275 6 351 -17 b 824 360 643 -17 824 139 b 763 565 824 438 801 508 l 857 664 l 743 771 l 649 675 b 431 736 586 714 510 736 b 38 360 218 736 38 581 z m 279 360 b 431 532 279 464 342 532 b 485 522 450 532 468 529 l 285 308 b 279 360 281 325 279 342 z m 582 360 b 431 188 582 256 519 188 b 376 197 411 188 393 190 l 576 411 b 582 360 581 394 582 378 z "},"õ":{"ha":861,"x_min":0,"x_max":0,"o":"m 553 1092 b 507 1026 553 1049 535 1026 b 310 1104 458 1026 410 1104 b 121 839 186 1104 121 976 l 308 839 b 354 906 308 882 328 906 b 551 828 404 906 453 828 b 740 1092 675 828 740 956 z m 38 360 b 431 -17 38 139 218 -17 b 824 360 643 -17 824 139 b 431 736 824 581 643 736 b 38 360 218 736 38 581 z m 293 360 b 431 517 293 454 350 517 b 568 360 511 517 568 454 b 431 203 568 265 511 203 b 293 360 350 203 293 265 z "},"œ":{"ha":861,"x_min":0,"x_max":0,"o":"m 14 360 b 271 -17 14 139 131 -17 b 444 79 338 -17 399 18 b 610 -17 488 18 546 -17 b 844 231 708 -17 818 61 l 656 231 b 603 188 649 206 628 188 b 533 286 569 188 543 221 l 846 286 b 608 736 860 532 774 736 b 444 640 547 736 489 701 b 271 736 399 700 338 736 b 14 360 131 736 14 581 z m 606 532 b 671 424 646 532 668 481 l 532 424 b 606 532 543 493 572 532 z m 207 360 b 285 517 207 454 239 517 b 361 360 329 517 361 454 b 285 203 361 265 329 203 b 207 360 239 203 207 265 z "},"ŕ":{"ha":861,"x_min":0,"x_max":0,"o":"m 281 825 l 543 825 l 731 1090 l 468 1090 z m 563 390 l 563 288 l 817 288 l 817 451 b 540 736 817 626 713 736 b 339 661 456 736 382 704 l 339 719 l 81 719 l 81 0 l 339 0 l 339 390 b 450 514 339 457 378 514 b 563 390 522 514 563 457 z "},"ř":{"ha":861,"x_min":0,"x_max":0,"o":"m 421 801 l 733 1119 l 507 1119 l 421 1036 l 335 1119 l 108 1119 z m 563 390 l 563 288 l 817 288 l 817 451 b 540 736 817 626 713 736 b 339 661 456 736 382 704 l 339 719 l 81 719 l 81 0 l 339 0 l 339 390 b 450 514 339 457 378 514 b 563 390 522 514 563 457 z "},"ŗ":{"ha":861,"x_min":0,"x_max":0,"o":"m 563 390 l 563 288 l 817 288 l 817 451 b 540 736 817 626 713 736 b 339 661 456 736 382 704 l 339 719 l 81 719 l 81 0 l 339 0 l 339 390 b 450 514 339 457 378 514 b 563 390 522 514 563 457 z m 592 -46 l 378 -46 l 378 -158 l 176 -158 l 176 -347 l 592 -347 z "},"ś":{"ha":861,"x_min":0,"x_max":0,"o":"m 282 825 l 544 825 l 732 1090 l 469 1090 z m 57 82 b 400 -17 128 21 276 -17 b 760 240 600 -17 760 74 b 357 514 760 504 357 421 b 429 554 357 540 385 554 b 632 476 496 554 567 531 l 746 636 b 424 736 678 693 561 736 b 90 482 235 736 90 639 b 499 210 90 197 499 307 b 414 169 499 182 464 169 b 158 261 340 169 233 203 z "},"š":{"ha":861,"x_min":0,"x_max":0,"o":"m 422 801 l 735 1119 l 508 1119 l 422 1036 l 336 1119 l 110 1119 z m 57 82 b 400 -17 128 21 276 -17 b 760 240 600 -17 760 74 b 357 514 760 504 357 421 b 429 554 357 540 385 554 b 632 476 496 554 567 531 l 746 636 b 424 736 678 693 561 736 b 90 482 235 736 90 639 b 499 210 90 197 499 307 b 414 169 499 182 464 169 b 158 261 340 169 233 203 z "},"ş":{"ha":861,"x_min":0,"x_max":0,"o":"m 57 82 b 400 -17 128 21 276 -17 b 760 240 600 -17 760 74 b 357 514 760 504 357 421 b 429 554 357 540 385 554 b 632 476 496 554 567 531 l 746 636 b 424 736 678 693 561 736 b 90 482 235 736 90 639 b 499 210 90 197 499 307 b 414 169 499 182 464 169 b 158 261 340 169 233 203 z m 100 -347 l 363 -347 l 536 -100 l 274 -100 z "},"ŝ":{"ha":861,"x_min":0,"x_max":0,"o":"m 422 1136 l 110 818 l 336 818 l 422 901 l 508 818 l 735 818 z m 57 82 b 400 -17 128 21 276 -17 b 760 240 600 -17 760 74 b 357 514 760 504 357 421 b 429 554 357 540 385 554 b 632 476 496 554 567 531 l 746 636 b 424 736 678 693 561 736 b 90 482 235 736 90 639 b 499 210 90 197 499 307 b 414 169 499 182 464 169 b 158 261 340 169 233 203 z "},"ș":{"ha":861,"x_min":0,"x_max":0,"o":"m 57 82 b 400 -17 128 21 276 -17 b 760 240 600 -17 760 74 b 357 514 760 504 357 421 b 429 554 357 540 385 554 b 632 476 496 554 567 531 l 746 636 b 424 736 678 693 561 736 b 90 482 235 736 90 639 b 499 210 90 197 499 307 b 414 169 499 182 464 169 b 158 261 340 169 233 203 z m 510 -46 l 296 -46 l 296 -158 l 94 -158 l 94 -347 l 510 -347 z "},"ŧ":{"ha":861,"x_min":0,"x_max":0,"o":"m 150 426 l 150 224 l 301 224 l 301 0 l 560 0 l 560 224 l 713 224 l 713 426 l 560 426 l 560 517 l 815 517 l 815 719 l 560 719 l 560 942 l 301 942 l 301 719 l 46 719 l 46 517 l 301 517 l 301 426 z "},"ť":{"ha":861,"x_min":0,"x_max":0,"o":"m 597 756 l 818 756 l 896 1119 l 675 1119 z m 46 517 l 301 517 l 301 0 l 560 0 l 560 517 l 815 517 l 815 719 l 560 719 l 560 942 l 301 942 l 301 719 l 46 719 z "},"ţ":{"ha":861,"x_min":0,"x_max":0,"o":"m 46 517 l 301 517 l 301 0 l 560 0 l 560 517 l 815 517 l 815 719 l 560 719 l 560 942 l 301 942 l 301 719 l 46 719 z m 129 -347 l 392 -347 l 565 -100 l 303 -100 z "},"ț":{"ha":861,"x_min":0,"x_max":0,"o":"m 46 517 l 301 517 l 301 0 l 560 0 l 560 517 l 815 517 l 815 719 l 560 719 l 560 942 l 301 942 l 301 719 l 46 719 z m 539 -46 l 325 -46 l 325 -158 l 124 -158 l 124 -347 l 539 -347 z "},"þ":{"ha":861,"x_min":0,"x_max":0,"o":"m 308 1119 l 50 1119 l 50 -347 l 308 -347 l 308 47 b 501 -17 346 17 410 -17 b 842 360 692 -17 842 143 b 501 736 842 576 692 736 b 308 672 410 736 346 703 z m 586 360 b 444 203 586 267 525 203 b 303 360 363 203 303 267 b 444 517 303 453 363 517 b 586 360 525 517 586 453 z "},"ú":{"ha":861,"x_min":0,"x_max":0,"o":"m 290 825 l 553 825 l 740 1090 l 478 1090 z m 431 201 b 336 313 369 201 336 243 l 336 719 l 78 719 l 78 308 b 431 -17 78 110 225 -17 b 783 308 636 -17 783 110 l 783 719 l 525 719 l 525 313 b 431 201 525 243 492 201 z "},"ŭ":{"ha":861,"x_min":0,"x_max":0,"o":"m 431 825 b 704 1092 576 825 701 929 l 497 1092 b 431 1010 496 1043 474 1010 b 363 1092 386 1010 364 1043 l 157 1092 b 431 825 160 929 285 825 z m 431 201 b 336 313 369 201 336 243 l 336 719 l 78 719 l 78 308 b 431 -17 78 110 225 -17 b 783 308 636 -17 783 110 l 783 719 l 525 719 l 525 313 b 431 201 525 243 492 201 z "},"û":{"ha":861,"x_min":0,"x_max":0,"o":"m 431 1136 l 118 818 l 344 818 l 431 901 l 517 818 l 743 818 z m 431 201 b 336 313 369 201 336 243 l 336 719 l 78 719 l 78 308 b 431 -17 78 110 225 -17 b 783 308 636 -17 783 110 l 783 719 l 525 719 l 525 313 b 431 201 525 243 492 201 z "},"ü":{"ha":861,"x_min":0,"x_max":0,"o":"m 251 831 b 407 982 336 831 407 897 b 251 1136 407 1068 336 1136 b 97 982 168 1136 97 1068 b 251 831 97 897 168 831 z m 610 831 b 764 982 693 831 764 897 b 610 1136 764 1068 693 1136 b 454 982 525 1136 454 1068 b 610 831 454 897 525 831 z m 431 201 b 336 313 369 201 336 243 l 336 719 l 78 719 l 78 308 b 431 -17 78 110 225 -17 b 783 308 636 -17 783 110 l 783 719 l 525 719 l 525 313 b 431 201 525 243 492 201 z "},"ù":{"ha":861,"x_min":0,"x_max":0,"o":"m 561 825 l 374 1090 l 111 1090 l 299 825 z m 431 201 b 336 313 369 201 336 243 l 336 719 l 78 719 l 78 308 b 431 -17 78 110 225 -17 b 783 308 636 -17 783 110 l 783 719 l 525 719 l 525 313 b 431 201 525 243 492 201 z "},"ű":{"ha":861,"x_min":0,"x_max":0,"o":"m 157 825 l 392 825 l 579 1090 l 344 1090 z m 463 825 l 697 825 l 885 1090 l 650 1090 z m 431 201 b 336 313 369 201 336 243 l 336 719 l 78 719 l 78 308 b 431 -17 78 110 225 -17 b 783 308 636 -17 783 110 l 783 719 l 525 719 l 525 313 b 431 201 525 243 492 201 z "},"ū":{"ha":861,"x_min":0,"x_max":0,"o":"m 181 861 l 681 861 l 681 1065 l 181 1065 z m 431 201 b 336 313 369 201 336 243 l 336 719 l 78 719 l 78 308 b 431 -17 78 110 225 -17 b 783 308 636 -17 783 110 l 783 719 l 525 719 l 525 313 b 431 201 525 243 492 201 z "},"ų":{"ha":861,"x_min":0,"x_max":0,"o":"m 431 201 b 336 313 369 201 336 243 l 336 719 l 78 719 l 78 308 b 351 -10 78 136 189 18 l 329 -31 b 251 -196 275 -81 251 -140 b 438 -364 251 -296 326 -364 b 651 -147 572 -364 647 -271 l 486 -147 b 457 -185 486 -169 475 -185 b 429 -156 442 -185 429 -174 b 453 -111 429 -140 438 -126 l 564 3 b 783 308 697 46 783 156 l 783 719 l 525 719 l 525 313 b 431 201 525 243 492 201 z "},"ů":{"ha":861,"x_min":0,"x_max":0,"o":"m 185 1028 b 431 785 185 892 294 785 b 676 1028 567 785 676 892 b 431 1271 676 1164 567 1271 b 185 1028 294 1271 185 1164 z m 431 965 b 368 1028 396 965 368 993 b 431 1090 368 1063 396 1090 b 493 1028 465 1090 493 1063 b 431 965 493 993 465 965 z m 431 201 b 336 313 369 201 336 243 l 336 719 l 78 719 l 78 308 b 431 -17 78 110 225 -17 b 783 308 636 -17 783 110 l 783 719 l 525 719 l 525 313 b 431 201 525 243 492 201 z "},"ũ":{"ha":861,"x_min":0,"x_max":0,"o":"m 553 1092 b 507 1026 553 1049 535 1026 b 310 1104 458 1026 410 1104 b 121 839 186 1104 121 976 l 308 839 b 354 906 308 882 328 906 b 551 828 404 906 453 828 b 740 1092 675 828 740 956 z m 431 201 b 336 313 369 201 336 243 l 336 719 l 78 719 l 78 308 b 431 -17 78 110 225 -17 b 783 308 636 -17 783 110 l 783 719 l 525 719 l 525 313 b 431 201 525 243 492 201 z "},"ẃ":{"ha":861,"x_min":0,"x_max":0,"o":"m 290 825 l 553 825 l 740 1090 l 478 1090 z m 433 750 l 307 478 l 236 719 l 0 719 l 247 -43 l 431 331 l 614 -43 l 861 719 l 629 719 l 558 478 z "},"ŵ":{"ha":861,"x_min":0,"x_max":0,"o":"m 431 1136 l 118 818 l 344 818 l 431 901 l 517 818 l 743 818 z m 433 750 l 307 478 l 236 719 l 0 719 l 247 -43 l 431 331 l 614 -43 l 861 719 l 629 719 l 558 478 z "},"ẁ":{"ha":861,"x_min":0,"x_max":0,"o":"m 561 825 l 374 1090 l 111 1090 l 299 825 z m 433 750 l 307 478 l 236 719 l 0 719 l 247 -43 l 431 331 l 614 -43 l 861 719 l 629 719 l 558 478 z "},"ẅ":{"ha":861,"x_min":0,"x_max":0,"o":"m 251 831 b 407 982 336 831 407 897 b 251 1136 407 1068 336 1136 b 97 982 168 1136 97 1068 b 251 831 97 897 168 831 z m 610 831 b 764 982 693 831 764 897 b 610 1136 764 1068 693 1136 b 454 982 525 1136 454 1068 b 610 831 454 897 525 831 z m 433 750 l 307 478 l 236 719 l 0 719 l 247 -43 l 431 331 l 614 -43 l 861 719 l 629 719 l 558 478 z "},"ý":{"ha":861,"x_min":0,"x_max":0,"o":"m 296 825 l 558 825 l 746 1090 l 483 1090 z m 28 -347 l 296 -347 l 869 719 l 594 719 l 433 417 l 282 719 l 3 719 l 297 160 z "},"ŷ":{"ha":861,"x_min":0,"x_max":0,"o":"m 436 1136 l 124 818 l 350 818 l 436 901 l 522 818 l 749 818 z m 28 -347 l 296 -347 l 869 719 l 594 719 l 433 417 l 282 719 l 3 719 l 297 160 z "},"ÿ":{"ha":861,"x_min":0,"x_max":0,"o":"m 257 831 b 413 982 342 831 413 897 b 257 1136 413 1068 342 1136 b 103 982 174 1136 103 1068 b 257 831 103 897 174 831 z m 615 831 b 769 982 699 831 769 897 b 615 1136 769 1068 699 1136 b 460 982 531 1136 460 1068 b 615 831 460 897 531 831 z m 28 -347 l 296 -347 l 869 719 l 594 719 l 433 417 l 282 719 l 3 719 l 297 160 z "},"ỳ":{"ha":861,"x_min":0,"x_max":0,"o":"m 567 825 l 379 1090 l 117 1090 l 304 825 z m 28 -347 l 296 -347 l 869 719 l 594 719 l 433 417 l 282 719 l 3 719 l 297 160 z "},"ź":{"ha":861,"x_min":0,"x_max":0,"o":"m 278 825 l 540 825 l 728 1090 l 465 1090 z m 388 517 l 51 0 l 774 0 l 774 203 l 447 203 l 783 719 l 71 719 l 71 517 z "},"ž":{"ha":861,"x_min":0,"x_max":0,"o":"m 418 801 l 731 1119 l 504 1119 l 418 1036 l 332 1119 l 106 1119 z m 388 517 l 51 0 l 774 0 l 774 203 l 447 203 l 783 719 l 71 719 l 71 517 z "},"ż":{"ha":861,"x_min":0,"x_max":0,"o":"m 418 815 b 581 975 507 815 581 885 b 418 1136 581 1065 507 1136 b 256 975 329 1136 256 1065 b 418 815 256 885 329 815 z m 388 517 l 51 0 l 774 0 l 774 203 l 447 203 l 783 719 l 71 719 l 71 517 z "},"º":{"ha":861,"x_min":0,"x_max":0,"o":"m 150 793 b 431 529 150 636 279 529 b 711 793 582 529 711 636 b 431 1058 711 951 582 1058 b 150 793 279 1058 150 951 z m 353 793 b 431 888 353 851 383 888 b 508 793 478 888 508 851 b 431 700 508 736 478 700 b 353 793 383 700 353 736 z m 178 236 l 681 236 l 681 408 l 178 408 z "},"ª":{"ha":861,"x_min":0,"x_max":0,"o":"m 501 1047 l 501 1029 b 376 1058 476 1039 440 1058 b 140 793 246 1058 140 949 b 376 529 140 639 246 529 b 501 558 440 529 476 549 l 501 540 l 706 540 l 706 1047 z m 342 793 b 424 886 342 850 376 886 b 504 793 471 886 504 850 b 424 701 504 738 471 701 b 342 793 376 701 342 738 z m 168 236 l 706 236 l 706 408 l 168 408 z "},"&":{"ha":861,"x_min":0,"x_max":0,"o":"m 861 196 b 743 308 794 196 743 247 b 861 419 743 369 794 419 l 861 633 b 606 522 763 633 669 592 b 572 544 594 532 582 539 b 668 764 624 589 668 665 b 363 1064 668 944 526 1064 b 57 764 199 1064 57 944 b 154 544 57 665 103 589 b 7 301 97 514 7 431 b 363 -17 7 111 167 -17 b 622 78 465 -17 557 18 b 861 -17 683 18 769 -17 z m 363 661 b 264 760 304 661 264 706 b 363 858 264 814 304 858 b 461 760 421 858 461 814 b 363 661 461 706 421 661 z m 363 199 b 240 321 296 199 240 251 b 363 443 240 392 296 443 b 485 321 429 443 485 392 b 363 199 485 251 429 199 z "},"`":{"ha":861,"x_min":0,"x_max":0,"o":"m 656 825 l 468 1090 l 206 1090 l 393 825 z "},"´":{"ha":861,"x_min":0,"x_max":0,"o":"m 206 825 l 468 825 l 656 1090 l 393 1090 z "},"ˆ":{"ha":861,"x_min":0,"x_max":0,"o":"m 431 1136 l 118 818 l 344 818 l 431 901 l 517 818 l 743 818 z "},"˜":{"ha":861,"x_min":0,"x_max":0,"o":"m 553 1092 b 507 1026 553 1049 535 1026 b 310 1104 458 1026 410 1104 b 121 839 186 1104 121 976 l 308 839 b 354 906 308 882 328 906 b 551 828 404 906 453 828 b 740 1092 675 828 740 956 z "},"¯":{"ha":861,"x_min":0,"x_max":0,"o":"m 181 861 l 681 861 l 681 1065 l 181 1065 z "},"˘":{"ha":861,"x_min":0,"x_max":0,"o":"m 431 825 b 704 1092 576 825 701 929 l 497 1092 b 431 1010 496 1043 474 1010 b 363 1092 386 1010 364 1043 l 157 1092 b 431 825 160 929 285 825 z "},"˙":{"ha":861,"x_min":0,"x_max":0,"o":"m 431 815 b 593 975 519 815 593 885 b 431 1136 593 1065 519 1136 b 268 975 342 1136 268 1065 b 431 815 268 885 342 815 z "},"¨":{"ha":861,"x_min":0,"x_max":0,"o":"m 251 831 b 407 982 336 831 407 897 b 251 1136 407 1068 336 1136 b 97 982 168 1136 97 1068 b 251 831 97 897 168 831 z m 610 831 b 764 982 693 831 764 897 b 610 1136 764 1068 693 1136 b 454 982 525 1136 454 1068 b 610 831 454 897 525 831 z "},"˚":{"ha":861,"x_min":0,"x_max":0,"o":"m 185 1028 b 431 785 185 892 294 785 b 676 1028 567 785 676 892 b 431 1271 676 1164 567 1271 b 185 1028 294 1271 185 1164 z m 431 965 b 368 1028 396 965 368 993 b 431 1090 368 1063 396 1090 b 493 1028 465 1090 493 1063 b 431 965 493 993 465 965 z "},"˝":{"ha":861,"x_min":0,"x_max":0,"o":"m 67 825 l 301 825 l 489 1090 l 254 1090 z m 372 825 l 607 825 l 794 1090 l 560 1090 z "},"ˇ":{"ha":861,"x_min":0,"x_max":0,"o":"m 431 801 l 743 1119 l 517 1119 l 431 1036 l 344 1119 l 118 1119 z "},"":{"ha":861,"x_min":0,"x_max":0,"o":"m 638 -46 l 424 -46 l 424 -158 l 222 -158 l 222 -347 l 638 -347 z "},"¸":{"ha":861,"x_min":0,"x_max":0,"o":"m 219 -347 l 482 -347 l 656 -100 l 393 -100 z "},"˛":{"ha":861,"x_min":0,"x_max":0,"o":"m 361 18 l 311 -31 b 231 -196 257 -82 231 -137 b 417 -364 231 -296 306 -364 b 631 -147 551 -364 626 -271 l 465 -147 b 436 -185 465 -169 454 -185 b 408 -156 421 -185 408 -174 b 432 -111 408 -140 417 -126 l 540 0 z "},".":{"ha":861,"x_min":0,"x_max":0,"o":"m 251 165 b 431 -12 251 64 331 -12 b 610 165 531 -12 610 64 b 431 342 610 265 531 342 b 251 165 331 342 251 265 z "},",":{"ha":861,"x_min":0,"x_max":0,"o":"m 78 -265 l 356 -265 l 647 211 l 369 211 z "},":":{"ha":861,"x_min":0,"x_max":0,"o":"m 251 583 b 431 406 251 482 331 406 b 610 583 531 406 610 482 b 431 760 610 683 531 760 b 251 583 331 760 251 683 z m 251 165 b 431 -12 251 64 331 -12 b 610 165 531 -12 610 64 b 431 342 610 265 531 342 b 251 165 331 342 251 265 z "},";":{"ha":861,"x_min":0,"x_max":0,"o":"m 251 583 b 431 406 251 482 331 406 b 610 583 531 406 610 482 b 431 760 610 683 531 760 b 251 583 331 760 251 683 z m 78 -265 l 356 -265 l 647 211 l 369 211 z "},"…":{"ha":861,"x_min":0,"x_max":0,"o":"m 7 124 b 144 -12 7 46 68 -12 b 282 124 221 -12 282 46 b 144 260 282 201 221 260 b 7 124 68 260 7 201 z m 293 124 b 431 -12 293 46 354 -12 b 568 124 507 -12 568 46 b 431 260 568 201 507 260 b 293 124 354 260 293 201 z m 579 124 b 717 -12 579 46 640 -12 b 854 124 793 -12 854 46 b 717 260 854 201 793 260 b 579 124 640 260 579 201 z "},"!":{"ha":861,"x_min":0,"x_max":0,"o":"m 294 389 l 567 389 l 567 1047 l 294 1047 z m 251 165 b 431 -12 251 64 331 -12 b 610 165 531 -12 610 64 b 431 342 610 265 531 342 b 251 165 331 342 251 265 z "},"¡":{"ha":861,"x_min":0,"x_max":0,"o":"m 610 558 b 431 736 610 660 531 736 b 251 558 331 736 251 660 b 431 382 251 458 331 382 b 610 558 531 382 610 458 z m 567 335 l 294 335 l 294 -324 l 567 -324 z "},"?":{"ha":861,"x_min":0,"x_max":0,"o":"m 393 542 b 751 817 393 639 751 568 b 443 1064 751 969 611 1064 b 110 788 263 1064 119 947 l 365 788 b 439 863 368 838 401 863 b 496 817 476 863 496 843 b 149 543 496 718 149 789 b 428 313 149 390 282 313 b 715 557 600 313 707 431 l 481 557 b 435 503 481 522 465 503 b 393 542 408 503 393 519 z m 275 136 b 426 -12 275 51 343 -12 b 576 136 510 -12 576 51 b 426 286 576 221 510 286 b 275 136 343 286 275 221 z "},"¿":{"ha":861,"x_min":0,"x_max":0,"o":"m 586 588 b 435 736 586 672 518 736 b 285 588 351 736 285 672 b 435 438 285 503 351 438 b 586 588 518 438 586 503 z m 468 182 b 110 -93 468 85 110 156 b 418 -340 110 -246 250 -340 b 751 -64 599 -340 742 -224 l 496 -64 b 422 -139 493 -114 460 -139 b 365 -93 385 -139 365 -119 b 713 181 365 6 713 -65 b 433 411 713 333 579 411 b 146 167 261 411 154 293 l 381 167 b 426 221 381 201 396 221 b 468 182 453 221 468 204 z "},"‘":{"ha":861,"x_min":0,"x_max":0,"o":"m 146 571 l 424 571 l 715 1047 l 438 1047 z "},"’":{"ha":861,"x_min":0,"x_max":0,"o":"m 146 571 l 424 571 l 715 1047 l 438 1047 z "},"“":{"ha":861,"x_min":0,"x_max":0,"o":"m 528 1047 l 292 1047 l 0 571 l 236 571 z m 861 1047 l 625 1047 l 333 571 l 569 571 z "},"”":{"ha":861,"x_min":0,"x_max":0,"o":"m 528 1047 l 292 1047 l 0 571 l 236 571 z m 861 1047 l 625 1047 l 333 571 l 569 571 z "},"‚":{"ha":861,"x_min":0,"x_max":0,"o":"m 111 -221 l 389 -221 l 681 256 l 403 256 z "},"„":{"ha":861,"x_min":0,"x_max":0,"o":"m 528 256 l 292 256 l 0 -221 l 236 -221 z m 861 256 l 625 256 l 333 -221 l 569 -221 z "},"‹":{"ha":861,"x_min":0,"x_max":0,"o":"m 638 243 l 489 392 l 638 540 l 506 672 l 224 392 l 506 111 z "},"›":{"ha":861,"x_min":0,"x_max":0,"o":"m 224 243 l 356 111 l 638 392 l 356 672 l 224 540 l 372 392 z "},"«":{"ha":861,"x_min":0,"x_max":0,"o":"m 442 243 l 293 392 l 442 540 l 310 672 l 28 392 l 310 111 z m 833 243 l 685 392 l 833 540 l 701 672 l 419 392 l 701 111 z "},"»":{"ha":861,"x_min":0,"x_max":0,"o":"m 419 243 l 551 111 l 833 392 l 551 672 l 419 540 l 568 392 z m 28 243 l 160 111 l 442 392 l 160 672 l 28 540 l 176 392 z "},"/":{"ha":861,"x_min":0,"x_max":0,"o":"m 64 -208 l 319 -208 l 797 1119 l 542 1119 z "},"\\":{"ha":861,"x_min":0,"x_max":0,"o":"m 797 -208 l 319 1119 l 64 1119 l 542 -208 z "},"|":{"ha":861,"x_min":0,"x_max":0,"o":"m 310 -208 l 551 -208 l 551 1161 l 310 1161 z "},"·":{"ha":861,"x_min":0,"x_max":0,"o":"m 251 393 b 431 215 251 292 331 215 b 610 393 531 215 610 292 b 431 569 610 493 531 569 b 251 393 331 569 251 493 z "},"•":{"ha":861,"x_min":0,"x_max":0,"o":"m 429 706 b 115 392 258 706 115 565 b 429 78 115 218 258 78 b 743 392 603 78 743 218 b 429 706 743 565 603 706 z "},"-":{"ha":861,"x_min":0,"x_max":0,"o":"m 242 517 l 242 267 l 619 267 l 619 517 z "},"–":{"ha":861,"x_min":0,"x_max":0,"o":"m 144 510 l 144 274 l 717 274 l 717 510 z "},"—":{"ha":861,"x_min":0,"x_max":0,"o":"m 0 510 l 0 274 l 861 274 l 861 510 z "},"(":{"ha":861,"x_min":0,"x_max":0,"o":"m 150 447 b 704 -225 150 115 389 -144 l 704 60 b 400 447 544 99 400 240 b 704 835 400 654 543 796 l 704 1119 b 150 447 388 1039 150 779 z "},")":{"ha":861,"x_min":0,"x_max":0,"o":"m 710 447 b 156 1119 710 779 472 1039 l 156 835 b 460 447 317 796 460 654 b 156 60 460 240 315 99 l 156 -225 b 710 447 471 -144 710 115 z "},"[":{"ha":861,"x_min":0,"x_max":0,"o":"m 406 924 l 750 924 l 750 1119 l 167 1119 l 167 -208 l 750 -208 l 750 -12 l 406 -12 z "},"]":{"ha":861,"x_min":0,"x_max":0,"o":"m 456 924 l 456 -12 l 111 -12 l 111 -208 l 694 -208 l 694 1119 l 111 1119 l 111 924 z "},"{":{"ha":861,"x_min":0,"x_max":0,"o":"m 513 867 b 560 924 513 910 528 924 l 750 924 l 750 1119 l 482 1119 b 279 910 360 1119 279 1051 l 279 678 b 176 564 279 594 239 564 l 42 564 l 42 347 l 176 347 b 279 233 239 347 279 317 l 279 1 b 482 -208 279 -140 360 -208 l 750 -208 l 750 -12 l 560 -12 b 513 44 528 -12 513 1 l 513 260 b 346 456 513 385 443 453 b 513 651 443 458 513 526 z "},"}":{"ha":861,"x_min":0,"x_max":0,"o":"m 349 867 l 349 651 b 515 456 349 526 418 458 b 349 260 418 453 349 385 l 349 44 b 301 -12 349 1 333 -12 l 111 -12 l 111 -208 l 379 -208 b 582 1 501 -208 582 -140 l 582 233 b 685 347 582 317 622 347 l 819 347 l 819 564 l 685 564 b 582 678 622 564 582 594 l 582 910 b 379 1119 582 1051 501 1119 l 111 1119 l 111 924 l 301 924 b 349 867 333 924 349 910 z "},"*":{"ha":861,"x_min":0,"x_max":0,"o":"m 358 371 l 504 371 l 504 582 l 693 475 l 767 600 l 576 710 l 767 818 l 693 944 l 504 836 l 504 1047 l 358 1047 l 358 836 l 169 944 l 93 818 l 286 710 l 93 600 l 169 475 l 358 582 z "},"†":{"ha":861,"x_min":0,"x_max":0,"o":"m 339 367 l 522 367 l 522 683 l 703 683 l 703 867 l 522 867 l 522 1047 l 339 1047 l 339 867 l 158 867 l 158 683 l 339 683 z "},"‡":{"ha":861,"x_min":0,"x_max":0,"o":"m 339 367 l 522 367 l 522 478 l 703 478 l 703 647 l 522 647 l 522 767 l 703 767 l 703 936 l 522 936 l 522 1047 l 339 1047 l 339 936 l 158 936 l 158 767 l 339 767 l 339 647 l 158 647 l 158 478 l 339 478 z "},"§":{"ha":861,"x_min":0,"x_max":0,"o":"m 128 343 b 222 133 128 253 167 189 b 368 24 267 89 321 54 b 489 -94 435 -19 489 -53 b 424 -160 489 -133 465 -160 b 349 -90 386 -160 364 -131 l 150 -197 b 425 -378 188 -294 294 -378 b 715 -112 586 -378 715 -267 b 590 115 715 -14 663 63 b 733 343 679 163 733 251 b 639 553 733 433 694 497 b 493 663 594 597 540 632 b 372 781 426 706 372 739 b 438 846 372 819 396 846 b 513 776 475 846 497 817 l 711 883 b 436 1064 674 981 567 1064 b 146 799 275 1064 146 953 b 271 571 146 700 199 624 b 128 343 182 524 128 435 z m 431 257 b 369 282 407 257 385 267 b 344 343 354 297 344 318 b 431 429 344 393 383 429 b 492 404 454 429 476 419 b 517 343 507 389 517 368 b 431 257 517 293 478 257 z "},"¶":{"ha":861,"x_min":0,"x_max":0,"o":"m 560 -347 l 729 -347 l 729 867 l 840 867 l 840 1047 l 560 1047 z m 313 -347 l 482 -347 l 482 1047 l 313 1047 b 7 778 175 1047 7 968 b 313 504 7 586 175 504 z "},"^":{"ha":861,"x_min":0,"x_max":0,"o":"m 431 1067 l 35 540 l 303 540 l 431 721 l 558 540 l 826 540 z "},"~":{"ha":861,"x_min":0,"x_max":0,"o":"m 553 550 b 507 485 553 507 535 485 b 310 563 458 485 410 563 b 121 297 186 563 121 435 l 308 297 b 354 364 308 340 328 364 b 551 286 404 364 453 286 b 740 550 675 286 740 414 z "},"_":{"ha":861,"x_min":0,"x_max":0,"o":"m 111 -68 l 111 -290 l 750 -290 l 750 -68 z "},"'":{"ha":861,"x_min":0,"x_max":0,"o":"m 292 376 l 556 640 l 556 1047 l 292 1047 z "},"\"":{"ha":861,"x_min":0,"x_max":0,"o":"m 111 376 l 375 640 l 375 1047 l 111 1047 z m 486 376 l 750 640 l 750 1047 l 486 1047 z "},"@":{"ha":861,"x_min":0,"x_max":0,"o":"m 13 -347 l 751 -347 l 849 -161 l 207 -161 l 207 861 l 651 861 l 651 554 b 507 614 625 583 582 614 b 257 350 369 614 257 501 b 507 85 257 197 369 85 b 651 146 582 85 625 117 l 651 96 l 846 96 l 846 1047 l 13 1047 z m 450 350 b 551 450 450 406 493 450 b 651 350 608 450 651 406 b 551 247 651 293 608 247 b 450 350 493 247 450 293 z "},"©":{"ha":861,"x_min":0,"x_max":0,"o":"m 840 525 b 431 1064 840 839 654 1064 b 21 525 207 1064 21 839 b 431 -15 21 213 207 -15 b 840 525 654 -15 840 213 z m 757 525 b 431 64 757 258 610 64 b 104 525 251 64 104 258 b 431 985 104 793 251 985 b 757 525 610 985 757 793 z m 399 524 b 506 656 399 600 443 656 b 583 615 532 656 564 640 l 583 829 b 453 878 543 861 501 878 b 194 524 314 878 194 719 b 453 172 194 331 314 172 b 583 219 501 172 543 189 l 583 433 b 506 394 564 408 532 394 b 399 524 443 394 399 449 z "},"®":{"ha":861,"x_min":0,"x_max":0,"o":"m 432 1064 b 100 732 250 1064 100 914 b 432 401 100 550 250 401 b 763 732 614 401 763 550 b 432 1064 763 914 614 1064 z m 432 469 b 168 732 288 469 168 588 b 432 996 168 876 288 996 b 694 732 576 996 694 876 b 432 469 694 588 576 469 z m 403 672 l 460 572 l 582 572 l 503 694 b 565 792 533 710 565 740 b 435 903 565 854 518 903 l 301 903 l 301 572 l 403 572 z m 403 810 l 419 810 b 460 779 444 810 460 801 b 419 749 460 760 444 749 l 403 749 z "},"™":{"ha":861,"x_min":0,"x_max":0,"o":"m 601 553 l 664 726 l 704 568 l 843 568 l 713 1094 l 603 843 l 493 1094 l 363 568 l 500 568 l 539 726 z m 18 913 l 131 913 l 131 568 l 283 568 l 283 913 l 394 913 l 394 1047 l 18 1047 z "},"#":{"ha":861,"x_min":0,"x_max":0,"o":"m 522 0 l 596 244 l 699 244 l 760 422 l 649 422 l 713 639 l 803 639 l 864 817 l 765 817 l 835 1047 l 635 1047 l 565 817 l 471 817 l 540 1047 l 339 1047 l 269 817 l 167 817 l 106 639 l 217 639 l 153 422 l 63 422 l 1 244 l 100 244 l 26 0 l 226 0 l 300 244 l 394 244 l 321 0 z m 353 422 l 418 639 l 513 639 l 447 422 z "},"°":{"ha":861,"x_min":0,"x_max":0,"o":"m 182 815 b 431 567 182 672 290 567 b 679 815 571 567 679 672 b 431 1064 679 958 571 1064 b 182 815 290 1064 182 958 z m 367 815 b 431 879 367 853 394 879 b 494 815 467 879 494 853 b 431 751 494 778 467 751 b 367 815 394 751 367 778 z "},"ƒ":{"ha":861,"x_min":0,"x_max":0,"o":"m 172 372 l 276 372 l 218 160 b 106 60 200 94 161 60 b 14 83 68 60 35 69 l 14 -139 b 136 -161 43 -153 83 -161 b 471 135 318 -161 422 -42 l 536 372 l 703 372 l 703 588 l 596 588 l 639 743 b 751 843 657 808 696 843 b 843 819 789 843 822 833 l 843 1042 b 721 1064 814 1056 774 1064 b 386 768 539 1064 435 944 l 336 588 l 172 588 z "},"€":{"ha":861,"x_min":0,"x_max":0,"o":"m 50 319 l 163 319 b 597 -17 231 122 394 -17 b 810 33 671 -17 746 0 l 810 324 b 615 222 768 265 700 222 b 429 319 538 222 472 257 l 592 319 l 619 494 l 375 494 b 374 524 374 504 374 514 l 374 549 l 626 549 l 654 724 l 426 724 b 615 825 469 789 536 825 b 810 725 700 825 768 782 l 810 1014 b 597 1064 746 1047 671 1064 b 161 724 393 1064 228 924 l 50 724 l 50 549 l 129 549 l 129 494 l 50 494 z "},"$":{"ha":861,"x_min":0,"x_max":0,"o":"m 838 322 b 536 615 838 524 682 579 l 536 849 b 674 746 592 831 640 796 l 811 914 b 536 1060 735 994 644 1044 l 536 1188 l 358 1188 l 358 1056 b 78 733 190 1019 78 896 b 358 447 78 540 219 482 l 358 207 b 154 350 279 229 214 279 l -3 178 b 358 -12 85 78 215 7 l 358 -156 l 536 -156 l 536 -7 b 838 322 710 29 838 150 z m 288 750 b 358 850 288 796 314 831 l 358 664 b 288 750 315 683 288 708 z m 617 308 b 536 204 617 260 589 222 l 536 399 b 617 308 585 379 617 353 z "},"¢":{"ha":861,"x_min":0,"x_max":0,"o":"m 415 -156 l 593 -156 l 593 -14 b 707 8 635 -10 675 0 l 707 238 b 593 199 675 219 638 204 l 593 521 b 707 482 638 515 675 500 l 707 711 b 593 733 675 719 635 729 l 593 849 l 415 849 l 415 719 b 119 360 246 674 119 539 b 415 0 119 181 246 46 z m 333 360 b 415 497 333 422 364 469 l 415 222 b 333 360 364 250 333 297 z "},"£":{"ha":861,"x_min":0,"x_max":0,"o":"m 46 383 l 217 383 b 239 301 225 360 232 332 b 1 133 132 293 39 214 l 163 -14 b 289 74 194 44 238 74 b 613 -14 389 74 476 -14 b 868 156 726 -14 828 69 l 707 303 b 581 215 676 244 633 215 b 471 243 543 215 508 228 b 446 383 464 297 456 344 l 635 383 l 635 576 l 369 576 b 324 725 344 626 324 664 b 453 847 324 789 374 847 b 610 701 531 847 583 796 l 835 797 b 458 1065 772 965 649 1065 b 76 724 235 1065 76 911 b 113 576 76 663 92 618 l 46 576 z "},"¥":{"ha":861,"x_min":0,"x_max":0,"o":"m 67 232 l 301 232 l 301 0 l 558 0 l 558 232 l 793 232 l 793 432 l 558 432 l 590 497 l 793 497 l 793 697 l 689 697 l 860 1047 l 585 1047 l 429 693 l 275 1047 l 0 1047 l 171 697 l 67 697 l 67 497 l 269 497 l 301 432 l 67 432 z "},"฿":{"ha":861,"x_min":0,"x_max":0,"o":"m 675 554 b 813 774 751 590 813 660 b 528 1043 813 918 713 1022 l 528 1188 l 361 1188 l 361 1047 l 65 1047 l 65 0 l 361 0 l 361 -156 l 528 -156 l 528 1 b 861 299 740 17 861 133 b 675 554 861 428 783 518 z m 292 840 l 361 840 l 361 610 l 292 610 z m 611 724 b 528 615 611 668 581 629 l 528 833 b 611 724 581 819 611 779 z m 292 440 l 361 440 l 361 207 l 292 207 z m 624 325 b 528 211 624 272 589 225 l 528 436 b 624 325 589 424 624 378 z "},"₫":{"ha":861,"x_min":0,"x_max":0,"o":"m 375 785 l 518 785 l 518 643 b 344 715 488 678 431 715 b 43 403 178 715 43 582 b 344 90 43 222 178 90 b 518 161 431 90 486 126 l 518 104 l 751 104 l 751 785 l 821 785 l 821 974 l 751 974 l 751 1047 l 518 1047 l 518 974 l 375 974 z m 278 403 b 401 526 278 472 329 526 b 522 403 472 526 522 472 b 401 279 522 333 472 279 b 278 403 329 279 278 333 z m 60 -189 l 751 -189 l 751 0 l 60 0 z "},"₣":{"ha":861,"x_min":0,"x_max":0,"o":"m 135 0 l 401 0 l 401 167 l 567 167 l 567 356 l 401 356 l 401 411 l 790 411 l 790 635 l 401 635 l 401 824 l 804 824 l 804 1047 l 135 1047 l 135 356 l 65 356 l 65 167 l 135 167 z "},"₦":{"ha":861,"x_min":0,"x_max":0,"o":"m 28 300 l 111 300 l 111 0 l 349 0 l 349 461 l 750 -43 l 750 300 l 833 300 l 833 500 l 750 500 l 750 556 l 833 556 l 833 756 l 750 756 l 750 1047 l 513 1047 l 513 585 l 111 1090 l 111 756 l 28 756 l 28 556 l 111 556 l 111 500 l 28 500 z "},"₧":{"ha":861,"x_min":0,"x_max":0,"o":"m 342 274 l 382 274 b 772 561 621 274 740 390 l 851 561 l 851 761 l 772 761 b 382 1047 740 931 621 1047 l 97 1047 l 97 761 l 10 761 l 10 561 l 97 561 l 97 0 l 342 0 z m 342 849 l 403 849 b 547 761 486 849 528 819 l 342 761 z m 342 474 l 342 561 l 547 561 b 403 474 529 503 486 474 z "},"₱":{"ha":861,"x_min":0,"x_max":0,"o":"m 10 433 l 93 433 l 93 0 l 351 0 l 351 301 l 367 301 b 704 433 514 301 632 347 l 851 433 l 851 633 l 781 633 b 782 674 782 646 782 660 l 782 689 l 851 689 l 851 889 l 724 889 b 367 1047 654 993 529 1047 l 93 1047 l 93 889 l 10 889 l 10 689 l 93 689 l 93 633 l 10 633 z m 351 826 l 379 826 b 539 674 475 826 539 775 b 379 522 539 574 475 522 l 351 522 z "},"₽":{"ha":861,"x_min":0,"x_max":0,"o":"m 25 113 l 108 113 l 108 0 l 367 0 l 367 113 l 499 113 l 499 301 l 367 301 l 367 357 l 429 357 b 839 701 672 357 839 488 b 429 1047 839 917 672 1047 l 108 1047 l 108 564 l 25 564 l 25 357 l 108 357 l 108 301 l 25 301 z m 428 826 b 568 701 515 826 568 778 b 428 564 568 626 515 564 l 367 564 l 367 826 z "},"₹":{"ha":861,"x_min":0,"x_max":0,"o":"m 47 550 l 47 364 l 189 364 l 485 0 l 813 0 l 475 397 b 675 606 578 436 647 510 l 813 606 l 813 799 l 674 799 b 647 854 667 819 658 838 l 813 854 l 813 1047 l 47 1047 l 47 854 l 282 854 b 407 799 339 854 381 832 l 47 799 l 47 606 l 407 606 b 282 550 381 572 339 550 z "},"₺":{"ha":861,"x_min":0,"x_max":0,"o":"m 106 0 l 449 0 b 838 451 678 0 838 136 l 565 451 b 421 224 565 304 513 224 l 364 224 l 364 326 l 481 404 l 481 611 l 364 533 l 364 599 l 481 676 l 481 883 l 364 806 l 364 1047 l 106 1047 l 106 647 l 36 600 l 36 393 l 106 440 l 106 374 l 36 328 l 36 121 l 106 167 z "},"₩":{"ha":861,"x_min":0,"x_max":0,"o":"m 24 300 l 176 300 l 247 -42 l 431 561 l 614 -42 l 685 300 l 838 300 l 838 500 l 726 500 l 738 556 l 838 556 l 838 756 l 779 756 l 840 1047 l 625 1047 l 544 608 l 433 989 l 321 606 l 240 1047 l 21 1047 l 82 756 l 24 756 l 24 556 l 124 556 l 135 500 l 24 500 z "},"⁰":{"ha":861,"x_min":0,"x_max":0,"o":"m 199 757 b 431 457 199 575 303 457 b 661 757 558 457 661 575 b 431 1057 661 939 558 1057 b 199 757 303 1057 199 939 z m 368 757 b 431 896 368 835 393 896 b 493 757 468 896 493 835 b 431 618 493 679 468 618 b 368 757 393 618 368 679 z "},"¹":{"ha":861,"x_min":0,"x_max":0,"o":"m 213 467 l 663 467 l 663 614 l 528 614 l 528 1047 l 282 1047 l 194 900 l 347 900 l 347 614 l 213 614 z "},"²":{"ha":861,"x_min":0,"x_max":0,"o":"m 383 835 b 429 885 388 861 397 885 b 464 843 450 885 464 869 b 413 746 464 818 443 789 l 197 467 l 667 467 l 667 614 l 514 614 l 547 660 b 653 857 603 731 653 793 b 426 1057 653 981 567 1057 b 186 835 286 1057 201 960 z "},"³":{"ha":861,"x_min":0,"x_max":0,"o":"m 438 697 b 496 654 469 697 496 685 b 436 603 496 624 469 603 b 365 669 394 603 368 631 l 190 669 b 436 457 196 540 293 457 b 665 644 578 457 665 540 b 603 767 665 699 640 739 b 647 874 622 788 647 825 b 443 1057 647 985 571 1057 b 214 858 315 1057 228 971 l 385 858 b 436 903 390 883 407 903 b 481 864 465 903 481 886 b 436 824 481 833 457 824 l 385 824 l 385 697 z "},"⁴":{"ha":861,"x_min":0,"x_max":0,"o":"m 608 467 l 608 590 l 703 590 l 703 729 l 608 729 l 608 1047 l 408 1047 l 178 725 l 178 590 l 447 590 l 447 467 z m 338 729 l 447 892 l 447 729 z "},"⁵":{"ha":861,"x_min":0,"x_max":0,"o":"m 374 615 b 244 672 321 615 269 653 l 211 508 b 390 457 243 485 303 457 b 638 690 529 457 638 563 b 439 882 638 792 569 882 l 442 900 l 621 900 l 621 1047 l 317 1047 l 261 738 b 357 753 297 751 332 753 b 464 685 421 753 464 725 b 374 615 464 631 408 615 z "},"⁶":{"ha":861,"x_min":0,"x_max":0,"o":"m 668 688 b 490 899 668 797 596 882 l 606 1047 l 406 1047 l 285 890 b 193 686 217 801 193 751 b 431 457 193 556 296 457 b 668 688 568 457 668 556 z m 432 760 b 506 686 474 760 506 726 b 432 613 506 649 474 613 b 357 686 389 613 357 649 b 432 760 357 726 389 760 z "},"⁷":{"ha":861,"x_min":0,"x_max":0,"o":"m 678 1047 l 192 1047 l 192 900 l 428 900 l 236 467 l 428 467 z "},"⁸":{"ha":861,"x_min":0,"x_max":0,"o":"m 431 457 b 667 633 561 457 667 526 b 581 761 667 706 607 747 b 636 883 610 788 636 829 b 431 1057 636 989 538 1057 b 224 883 324 1057 224 989 b 279 761 224 829 251 788 b 194 633 254 747 194 706 b 431 457 194 526 299 457 z m 431 928 b 478 882 458 928 478 910 b 431 838 478 854 458 838 b 383 882 401 838 383 854 b 431 928 383 910 401 928 z m 431 694 b 486 646 464 694 486 675 b 431 597 486 617 464 597 b 374 646 397 597 374 617 b 431 694 374 675 397 694 z "},"⁹":{"ha":861,"x_min":0,"x_max":0,"o":"m 193 826 b 371 615 193 717 265 632 l 256 467 l 456 467 l 576 624 b 668 828 644 713 668 763 b 431 1057 668 958 565 1057 b 193 826 293 1057 193 958 z m 429 754 b 356 828 388 754 356 788 b 429 901 356 865 388 901 b 504 828 472 901 504 865 b 429 754 504 788 472 754 z "},"₀":{"ha":861,"x_min":0,"x_max":0,"o":"m 199 96 b 431 -204 199 -86 303 -204 b 661 96 558 -204 661 -86 b 431 396 661 278 558 396 b 199 96 303 396 199 278 z m 368 96 b 431 235 368 174 393 235 b 493 96 468 235 493 174 b 431 -43 493 18 468 -43 b 368 96 393 -43 368 18 z "},"₁":{"ha":861,"x_min":0,"x_max":0,"o":"m 213 -194 l 663 -194 l 663 -47 l 528 -47 l 528 386 l 282 386 l 194 239 l 347 239 l 347 -47 l 213 -47 z "},"₂":{"ha":861,"x_min":0,"x_max":0,"o":"m 383 174 b 429 224 388 200 397 224 b 464 182 450 224 464 208 b 413 85 464 157 443 128 l 197 -194 l 667 -194 l 667 -47 l 514 -47 l 547 -1 b 653 196 603 69 653 132 b 426 396 653 319 567 396 b 186 174 286 396 201 299 z "},"₃":{"ha":861,"x_min":0,"x_max":0,"o":"m 438 36 b 496 -7 469 36 496 24 b 436 -58 496 -37 469 -58 b 365 8 394 -58 368 -31 l 190 8 b 436 -204 196 -121 293 -204 b 665 -17 578 -204 665 -121 b 603 106 665 38 640 78 b 647 213 622 126 647 164 b 443 396 647 324 571 396 b 214 197 315 396 228 310 l 385 197 b 436 242 390 222 407 242 b 481 203 465 242 481 225 b 436 163 481 172 457 163 l 385 163 l 385 36 z "},"₄":{"ha":861,"x_min":0,"x_max":0,"o":"m 608 -194 l 608 -71 l 703 -71 l 703 68 l 608 68 l 608 386 l 408 386 l 178 64 l 178 -71 l 447 -71 l 447 -194 z m 338 68 l 447 231 l 447 68 z "},"₅":{"ha":861,"x_min":0,"x_max":0,"o":"m 374 -46 b 244 11 321 -46 269 -8 l 211 -153 b 390 -204 243 -176 303 -204 b 638 29 529 -204 638 -99 b 439 221 638 131 569 221 l 442 239 l 621 239 l 621 386 l 317 386 l 261 76 b 357 92 297 90 332 92 b 464 24 421 92 464 64 b 374 -46 464 -31 408 -46 z "},"₆":{"ha":861,"x_min":0,"x_max":0,"o":"m 668 26 b 490 238 668 136 596 221 l 606 386 l 406 386 l 285 229 b 193 25 217 140 193 90 b 431 -204 193 -106 296 -204 b 668 26 568 -204 668 -106 z m 432 99 b 506 25 474 99 506 65 b 432 -49 506 -12 474 -49 b 357 25 389 -49 357 -12 b 432 99 357 65 389 99 z "},"₇":{"ha":861,"x_min":0,"x_max":0,"o":"m 678 386 l 192 386 l 192 239 l 428 239 l 236 -194 l 428 -194 z "},"₈":{"ha":861,"x_min":0,"x_max":0,"o":"m 431 -204 b 667 -28 561 -204 667 -135 b 581 100 667 44 607 86 b 636 222 610 126 636 168 b 431 396 636 328 538 396 b 224 222 324 396 224 328 b 279 100 224 168 251 126 b 194 -28 254 86 194 44 b 431 -204 194 -135 299 -204 z m 431 267 b 478 221 458 267 478 249 b 431 176 478 193 458 176 b 383 221 401 176 383 193 b 431 267 383 249 401 267 z m 431 33 b 486 -15 464 33 486 14 b 431 -64 486 -44 464 -64 b 374 -15 397 -64 374 -44 b 431 33 374 14 397 33 z "},"₉":{"ha":861,"x_min":0,"x_max":0,"o":"m 193 165 b 371 -46 193 56 265 -29 l 256 -194 l 456 -194 l 576 -37 b 668 167 644 51 668 101 b 431 396 668 297 565 396 b 193 165 293 396 193 297 z m 429 93 b 356 167 388 93 356 126 b 429 240 356 204 388 240 b 504 167 472 240 504 204 b 429 93 504 126 472 93 z "},"⁄":{"ha":0,"x_min":0,"x_max":0,"o":"m -446 78 l -311 -17 l 446 969 l 311 1064 z "},"½":{"ha":1722,"x_min":0,"x_max":0,"o":"m 415 78 l 550 -17 l 1307 969 l 1172 1064 z m 185 467 l 635 467 l 635 614 l 500 614 l 500 1047 l 254 1047 l 167 900 l 319 900 l 319 614 l 185 614 z m 1244 368 b 1290 418 1249 394 1258 418 b 1325 376 1311 418 1325 403 b 1274 279 1325 351 1304 322 l 1058 0 l 1528 0 l 1528 147 l 1375 147 l 1408 193 b 1514 390 1464 264 1514 326 b 1288 590 1514 514 1428 590 b 1047 368 1147 590 1063 493 z "},"¼":{"ha":1722,"x_min":0,"x_max":0,"o":"m 415 78 l 550 -17 l 1307 969 l 1172 1064 z m 185 467 l 635 467 l 635 614 l 500 614 l 500 1047 l 254 1047 l 167 900 l 319 900 l 319 614 l 185 614 z m 1381 0 l 1381 124 l 1475 124 l 1475 263 l 1381 263 l 1381 581 l 1181 581 l 950 258 l 950 124 l 1219 124 l 1219 0 z m 1110 263 l 1219 425 l 1219 263 z "},"¾":{"ha":1722,"x_min":0,"x_max":0,"o":"m 415 78 l 550 -17 l 1307 969 l 1172 1064 z m 438 697 b 496 654 469 697 496 685 b 436 603 496 624 469 603 b 365 669 394 603 368 631 l 190 669 b 436 457 196 540 293 457 b 665 644 578 457 665 540 b 603 767 665 699 640 739 b 647 874 622 788 647 825 b 443 1057 647 985 571 1057 b 214 858 315 1057 228 971 l 385 858 b 436 903 390 883 407 903 b 481 864 465 903 481 886 b 436 824 481 833 457 824 l 385 824 l 385 697 z m 1381 0 l 1381 124 l 1475 124 l 1475 263 l 1381 263 l 1381 581 l 1181 581 l 950 258 l 950 124 l 1219 124 l 1219 0 z m 1110 263 l 1219 425 l 1219 263 z "},"⅓":{"ha":1722,"x_min":0,"x_max":0,"o":"m 415 78 l 550 -17 l 1307 969 l 1172 1064 z m 185 467 l 635 467 l 635 614 l 500 614 l 500 1047 l 254 1047 l 167 900 l 319 900 l 319 614 l 185 614 z m 1299 231 b 1357 188 1331 231 1357 218 b 1297 136 1357 157 1331 136 b 1226 203 1256 136 1229 164 l 1051 203 b 1297 -10 1057 74 1154 -10 b 1526 178 1439 -10 1526 74 b 1464 300 1526 232 1501 272 b 1508 407 1483 321 1508 358 b 1304 590 1508 518 1432 590 b 1075 392 1176 590 1089 504 l 1246 392 b 1297 436 1251 417 1268 436 b 1342 397 1326 436 1342 419 b 1297 357 1342 367 1318 357 l 1246 357 l 1246 231 z "},"⅔":{"ha":1722,"x_min":0,"x_max":0,"o":"m 415 78 l 550 -17 l 1307 969 l 1172 1064 z m 383 835 b 429 885 388 861 397 885 b 464 843 450 885 464 869 b 413 746 464 818 443 789 l 197 467 l 667 467 l 667 614 l 514 614 l 547 660 b 653 857 603 731 653 793 b 426 1057 653 981 567 1057 b 186 835 286 1057 201 960 z m 1299 231 b 1357 188 1331 231 1357 218 b 1297 136 1357 157 1331 136 b 1226 203 1256 136 1229 164 l 1051 203 b 1297 -10 1057 74 1154 -10 b 1526 178 1439 -10 1526 74 b 1464 300 1526 232 1501 272 b 1508 407 1483 321 1508 358 b 1304 590 1508 518 1432 590 b 1075 392 1176 590 1089 504 l 1246 392 b 1297 436 1251 417 1268 436 b 1342 397 1326 436 1342 419 b 1297 357 1342 367 1318 357 l 1246 357 l 1246 231 z "},"⅛":{"ha":1722,"x_min":0,"x_max":0,"o":"m 415 78 l 550 -17 l 1307 969 l 1172 1064 z m 185 467 l 635 467 l 635 614 l 500 614 l 500 1047 l 254 1047 l 167 900 l 319 900 l 319 614 l 185 614 z m 1292 -10 b 1528 167 1422 -10 1528 60 b 1442 294 1528 239 1468 281 b 1497 417 1471 321 1497 363 b 1292 590 1497 522 1399 590 b 1085 417 1185 590 1085 522 b 1140 294 1085 363 1113 321 b 1056 167 1115 281 1056 239 b 1292 -10 1056 60 1160 -10 z m 1292 461 b 1339 415 1319 461 1339 443 b 1292 371 1339 388 1319 371 b 1244 415 1263 371 1244 388 b 1292 461 1244 443 1263 461 z m 1292 228 b 1347 179 1325 228 1347 208 b 1292 131 1347 150 1325 131 b 1235 179 1258 131 1235 150 b 1292 228 1235 208 1258 228 z "},"⅜":{"ha":1722,"x_min":0,"x_max":0,"o":"m 415 78 l 550 -17 l 1307 969 l 1172 1064 z m 438 697 b 496 654 469 697 496 685 b 436 603 496 624 469 603 b 365 669 394 603 368 631 l 190 669 b 436 457 196 540 293 457 b 665 644 578 457 665 540 b 603 767 665 699 640 739 b 647 874 622 788 647 825 b 443 1057 647 985 571 1057 b 214 858 315 1057 228 971 l 385 858 b 436 903 390 883 407 903 b 481 864 465 903 481 886 b 436 824 481 833 457 824 l 385 824 l 385 697 z m 1292 -10 b 1528 167 1422 -10 1528 60 b 1442 294 1528 239 1468 281 b 1497 417 1471 321 1497 363 b 1292 590 1497 522 1399 590 b 1085 417 1185 590 1085 522 b 1140 294 1085 363 1113 321 b 1056 167 1115 281 1056 239 b 1292 -10 1056 60 1160 -10 z m 1292 461 b 1339 415 1319 461 1339 443 b 1292 371 1339 388 1319 371 b 1244 415 1263 371 1244 388 b 1292 461 1244 443 1263 461 z m 1292 228 b 1347 179 1325 228 1347 208 b 1292 131 1347 150 1325 131 b 1235 179 1258 131 1235 150 b 1292 228 1235 208 1258 228 z "},"⅝":{"ha":1722,"x_min":0,"x_max":0,"o":"m 415 78 l 550 -17 l 1307 969 l 1172 1064 z m 374 615 b 244 672 321 615 269 653 l 211 508 b 390 457 243 485 303 457 b 638 690 529 457 638 563 b 439 882 638 792 569 882 l 442 900 l 621 900 l 621 1047 l 317 1047 l 261 738 b 357 753 297 751 332 753 b 464 685 421 753 464 725 b 374 615 464 631 408 615 z m 1292 -10 b 1528 167 1422 -10 1528 60 b 1442 294 1528 239 1468 281 b 1497 417 1471 321 1497 363 b 1292 590 1497 522 1399 590 b 1085 417 1185 590 1085 522 b 1140 294 1085 363 1113 321 b 1056 167 1115 281 1056 239 b 1292 -10 1056 60 1160 -10 z m 1292 461 b 1339 415 1319 461 1339 443 b 1292 371 1339 388 1319 371 b 1244 415 1263 371 1244 388 b 1292 461 1244 443 1263 461 z m 1292 228 b 1347 179 1325 228 1347 208 b 1292 131 1347 150 1325 131 b 1235 179 1258 131 1235 150 b 1292 228 1235 208 1258 228 z "},"⅞":{"ha":1722,"x_min":0,"x_max":0,"o":"m 415 78 l 550 -17 l 1307 969 l 1172 1064 z m 761 1047 l 275 1047 l 275 900 l 511 900 l 319 467 l 511 467 z m 1292 -10 b 1528 167 1422 -10 1528 60 b 1442 294 1528 239 1468 281 b 1497 417 1471 321 1497 363 b 1292 590 1497 522 1399 590 b 1085 417 1185 590 1085 522 b 1140 294 1085 363 1113 321 b 1056 167 1115 281 1056 239 b 1292 -10 1056 60 1160 -10 z m 1292 461 b 1339 415 1319 461 1339 443 b 1292 371 1339 388 1319 371 b 1244 415 1263 371 1244 388 b 1292 461 1244 443 1263 461 z m 1292 228 b 1347 179 1325 228 1347 208 b 1292 131 1347 150 1325 131 b 1235 179 1258 131 1235 150 b 1292 228 1235 208 1258 228 z "},"%":{"ha":861,"x_min":0,"x_max":0,"o":"m 26 78 l 168 -17 l 835 969 l 693 1064 z m 438 854 b 226 1064 438 974 344 1064 b 15 854 108 1064 15 974 b 226 644 15 735 108 644 b 438 854 344 644 438 735 z m 163 854 b 226 918 163 890 190 918 b 290 854 263 918 290 890 b 226 790 290 818 263 790 b 163 854 190 790 163 818 z m 424 193 b 635 -17 424 74 517 -17 b 846 193 753 -17 846 74 b 635 403 846 313 753 403 b 424 193 517 403 424 313 z m 699 193 b 635 129 699 157 671 129 b 571 193 599 129 571 157 b 635 257 571 229 599 257 b 699 193 671 257 699 229 z "},"+":{"ha":861,"x_min":0,"x_max":0,"o":"m 808 383 l 808 583 l 531 583 l 531 861 l 332 861 l 332 583 l 54 583 l 54 383 l 332 383 l 332 106 l 531 106 l 531 383 z "},"−":{"ha":861,"x_min":0,"x_max":0,"o":"m 54 383 l 808 383 l 808 583 l 54 583 z "},"×":{"ha":861,"x_min":0,"x_max":0,"o":"m 290 483 l 71 264 l 213 124 l 431 342 l 649 124 l 790 265 l 572 483 l 790 703 l 649 843 l 431 625 l 213 843 l 71 703 z "},"÷":{"ha":861,"x_min":0,"x_max":0,"o":"m 431 653 b 572 792 508 653 572 713 b 431 931 572 869 508 931 b 290 792 354 931 290 869 b 431 653 290 713 354 653 z m 53 383 l 808 383 l 808 583 l 53 583 z m 431 36 b 572 175 508 36 572 97 b 431 314 572 253 508 314 b 290 175 354 314 290 253 b 431 36 290 97 354 36 z "},"=":{"ha":861,"x_min":0,"x_max":0,"o":"m 53 556 l 807 556 l 807 738 l 53 738 z m 53 232 l 807 232 l 807 413 l 53 413 z "},"<":{"ha":861,"x_min":0,"x_max":0,"o":"m 57 481 l 804 33 l 804 274 l 442 481 l 804 689 l 804 929 z "},">":{"ha":861,"x_min":0,"x_max":0,"o":"m 804 481 l 57 929 l 57 689 l 419 481 l 57 274 l 57 33 z "},"̀":{"ha":0,"x_min":0,"x_max":0,"o":"m 225 825 l 38 1090 l -225 1090 l -37 825 z "},"́":{"ha":0,"x_min":0,"x_max":0,"o":"m -225 825 l 38 825 l 225 1090 l -37 1090 z "},"̂":{"ha":0,"x_min":0,"x_max":0,"o":"m 0 1136 l -312 818 l -86 818 l 0 901 l 86 818 l 313 818 z "},"̃":{"ha":0,"x_min":0,"x_max":0,"o":"m 122 1092 b 76 1026 122 1049 104 1026 b -121 1104 28 1026 -21 1104 b -310 839 -244 1104 -310 976 l -122 839 b -76 906 -122 882 -103 906 b 121 828 -26 906 22 828 b 310 1092 244 828 310 956 z "},"̄":{"ha":0,"x_min":0,"x_max":0,"o":"m -250 861 l 250 861 l 250 1065 l -250 1065 z "},"̆":{"ha":0,"x_min":0,"x_max":0,"o":"m 0 825 b 274 1092 146 825 271 929 l 67 1092 b 0 1010 65 1043 43 1010 b -68 1092 -44 1010 -67 1043 l -274 1092 b 0 825 -271 929 -146 825 z "},"̇":{"ha":0,"x_min":0,"x_max":0,"o":"m 0 815 b 163 975 89 815 163 885 b 0 1136 163 1065 89 1136 b -162 975 -89 1136 -162 1065 b 0 815 -162 885 -89 815 z "},"̈":{"ha":0,"x_min":0,"x_max":0,"o":"m -179 831 b -24 982 -94 831 -24 897 b -179 1136 -24 1068 -94 1136 b -333 982 -262 1136 -333 1068 b -179 831 -333 897 -262 831 z m 179 831 b 333 982 263 831 333 897 b 179 1136 333 1068 263 1136 b 24 982 94 1136 24 1068 b 179 831 24 897 94 831 z "},"̊":{"ha":0,"x_min":0,"x_max":0,"o":"m -246 1028 b 0 785 -246 892 -136 785 b 246 1028 136 785 246 892 b 0 1271 246 1164 136 1271 b -246 1028 -136 1271 -246 1164 z m 0 965 b -62 1028 -35 965 -62 993 b 0 1090 -62 1063 -35 1090 b 63 1028 35 1090 63 1063 b 0 965 63 993 35 965 z "},"̋":{"ha":0,"x_min":0,"x_max":0,"o":"m -364 825 l -129 825 l 58 1090 l -176 1090 z m -58 825 l 176 825 l 364 1090 l 129 1090 z "},"̌":{"ha":0,"x_min":0,"x_max":0,"o":"m 0 801 l 313 1119 l 86 1119 l 0 1036 l -86 1119 l -312 1119 z "},"̒":{"ha":0,"x_min":0,"x_max":0,"o":"m -208 818 l 6 818 l 6 931 l 207 931 l 207 1119 l -208 1119 z "},"̦":{"ha":0,"x_min":0,"x_max":0,"o":"m 207 -46 l -7 -46 l -7 -158 l -208 -158 l -208 -347 l 207 -347 z "},"̧":{"ha":0,"x_min":0,"x_max":0,"o":"m -218 -347 l 44 -347 l 218 -100 l -44 -100 z "},"̨":{"ha":0,"x_min":0,"x_max":0,"o":"m -69 18 l -119 -31 b -200 -196 -174 -82 -200 -137 b -14 -364 -200 -296 -125 -364 b 200 -147 121 -364 196 -271 l 35 -147 b 6 -185 35 -169 24 -185 b -22 -156 -10 -185 -22 -174 b 1 -111 -22 -140 -14 -126 l 110 0 z "}}}
